<svg xmlns="http://www.w3.org/2000/svg" viewBox="0 0 1960 820" width="1960" height="820" role="img" aria-label="A busca tenta o bairro pedido, depois os vizinhos, a região e a cidade; o nível alcançado vai para o prompt e o agente não afirma indisponibilidade fora dele." xmlns:c2pa="http://c2pa.org/manifest"><metadata><c2pa:manifest>AAAWgmp1bWIAAAAeanVtZGMycGEAEQAQgAAAqgA4m3EDYzJwYQAAABZcanVtYgAAAEdqdW1kYzJtYQARABCAAACqADibcQN1cm46YzJwYTpmNzNmNTlmZS1iMGNlLTQ5ZDctYjNlMS1kYjAzOGExZDRlYzgAAAADl2p1bWIAAAApanVtZGMyYXMAEQAQgAAAqgA4m3EDYzJwYS5hc3NlcnRpb25zAAAAALxqdW1iAAAARGp1bWRjYm9yABEAEIAAAKoAOJtxE2MycGEuaW5ncmVkaWVudC52MwAAAAAYYzJzaO93XWoEQO7UzUJDsYIX2IUAAABwY2JvcqNpZGM6Zm9ybWF0bWltYWdlL3N2Zyt4bWxqaW5zdGFuY2VJRHgseG1wOmlpZDo3YTM1ZTk2NS1kZGIzLTRkYTEtYTI0Ni0yNTMyMTYyZGUwZjRscmVsYXRpb25zaGlwaHBhcmVudE9mAAAB4mp1bWIAAABBanVtZGNib3IAEQAQgAAAqgA4m3ETYzJwYS5hY3Rpb25zLnYyAAAAABhjMnNocOfGo55WPJu3+NpAVnEM6QAAAZljYm9yomdhY3Rpb25zgqJmYWN0aW9ua2MycGEub3BlbmVkanBhcmFtZXRlcnOha2luZ3JlZGllbnRzgaJjdXJseC1zZWxmI2p1bWJmPWMycGEuYXNzZXJ0aW9ucy9jMnBhLmluZ3JlZGllbnQudjNkaGFzaFggcnTAIfEBLL8U6VnvM3TtfDR8BRlmqu3Tg9necvn2LJWkZmFjdGlvbngdY29tLmFudGhyb3BpYy5jbGF1ZGUucHJvdmlkZWRqcGFyYW1ldGVyc6F4H2NvbS5hbnRocm9waWMub3JpZ2luLWNvbmZpZGVuY2VndW5rbm93bmtkZXNjcmlwdGlvbnhmQ2xhdWRlIHByb3ZpZGVkIHRoaXMgZmlsZSBhdCB0aGUgcmVxdWVzdCBvZiBhIHVzZXIgYW5kIG1heSBoYXZlIGNyZWF0ZWQgb3IgbW9kaWZpZWQgdGhlIGZpbGUgY29udGVudHMubXNvZnR3YXJlQWdlbnShZG5hbWVmQ2xhdWRlcmFsbEFjdGlvbnNJbmNsdWRlZPUAAADIanVtYgAAAEBqdW1kY2JvcgARABCAAACqADibcRNjMnBhLmhhc2guZGF0YQAAAAAYYzJzaDmhI2ca2jg6pbUWHEdKHXYAAACAY2JvcqVjYWxnZnNoYTI1NmNwYWRMAAAAAAAAAAAAAAAAZGhhc2hYIIbQsznEg2XIx9xiFd4oZ8XqoDvgnUxbdwzwz/bHORjXZG5hbWVuanVtYmYgbWFuaWZlc3RqZXhjbHVzaW9uc4GiZXN0YXJ0GQFTZmxlbmd0aBkeBAAAAj5qdW1iAAAAJ2p1bWRjMmNsABEAEIAAAKoAOJtxA2MycGEuY2xhaW0udjIAAAACD2Nib3KlY2FsZ2ZzaGEyNTZpc2lnbmF0dXJleE1zZWxmI2p1bWJmPS9jMnBhL3VybjpjMnBhOmY3M2Y1OWZlLWIwY2UtNDlkNy1iM2UxLWRiMDM4YTFkNGVjOC9jMnBhLnNpZ25hdHVyZWppbnN0YW5jZUlEeCx4bXA6aWlkOmNhMDU2YmY2LWE3MDQtNDRiZC05MjlhLTY4YzgwZTFhM2I2MXJjcmVhdGVkX2Fzc2VydGlvbnODomN1cmx4LXNlbGYjanVtYmY9YzJwYS5hc3NlcnRpb25zL2MycGEuaW5ncmVkaWVudC52M2RoYXNoWCBydMAh8QEsvxTpWe8zdO18NHwFGWaq7dOD2d5y+fYslaJjdXJseCpzZWxmI2p1bWJmPWMycGEuYXNzZXJ0aW9ucy9jMnBhLmFjdGlvbnMudjJkaGFzaFggRaXYzicLnRk7GbfqT5PM2+mKJOHWi/HPehnHopnB3YeiY3VybHgpc2VsZiNqdW1iZj1jMnBhLmFzc2VydGlvbnMvYzJwYS5oYXNoLmRhdGFkaGFzaFggVGUg7DD3DBSK3bxlHv+bQr8UqjNhw9EJZFlUBoUVsAl0Y2xhaW1fZ2VuZXJhdG9yX2luZm+jZG5hbWVvQW50aHJvcGljIEZpbGVzZ3ZlcnNpb25lMS4wLjBrc3BlY1ZlcnNpb25lMi40LjAAABA4anVtYgAAAChqdW1kYzJjcwARABCAAACqADibcQNjMnBhLnNpZ25hdHVyZQAAABAIY2JvctKEWQISogEmGCFZAgowggIGMIIBjaADAgECAhRA5aAK7sI50L64g/oGQgU9Z1UTADAKBggqhkjOPQQDAzBJMRcwFQYDVQQKEw5BbnRocm9waWMsIFBCQzEuMCwGA1UEAxMlQW50aHJvcGljIENvbnRlbnQgQ3JlZGVudGlhbHMgUm9vdCBDQTAeFw0yNjA4MDcxODQzNTZaFw0yODA4MDYxOTQzNTZaMEQxFzAVBgNVBAoTDkFudGhyb3BpYywgUEJDMSkwJwYDVQQDEyBBbnRocm9waWMgQ2xhdWRlIENvbnRlbnQgU2lnbmluZzBZMBMGByqGSM49AgEGCCqGSM49AwEHA0IABJh6CmvLUBgFFNU0vUKlOVtE6djd17L5SuwX0LemFisBM3dkd/3cyjxFA3Qo5S46fX0/ihY0VZ7mfb9KF703t5OjWDBWMA4GA1UdDwEB/wQEAwIHgDAVBgNVHSUEDjAMBgorBgEEAYPoXgIBMAwGA1UdEwEB/wQCMAAwHwYDVR0jBBgwFoAUzlHiBIFOZFsj+OPEz5o+nMHXXMIwCgYIKoZIzj0EAwMDZwAwZAIwMXMdFJ4BetLLVY7ORuE9noqbbAZOZn/aArXyTwFAZfKrPzxF2vPoJNf1+UCdg1XGAjBwX1zd9WGqYkqmL5SFqw1QySjr1zJfpJM9+1rdDwSPLMOPOjKuiXjoU/pUUeG9RwmhY3BhZFkNngAAAAAAAAAAAAAAAAAAAAAAAAAAAAAAAAAAAAAAAAAAAAAAAAAAAAAAAAAAAAAAAAAAAAAAAAAAAAAAAAAAAAAAAAAAAAAAAAAAAAAAAAAAAAAAAAAAAAAAAAAAAAAAAAAAAAAAAAAAAAAAAAAAAAAAAAAAAAAAAAAAAAAAAAAAAAAAAAAAAAAAAAAAAAAAAAAAAAAAAAAAAAAAAAAAAAAAAAAAAAAAAAAAAAAAAAAAAAAAAAAAAAAAAAAAAAAAAAAAAAAAAAAAAAAAAAAAAAAAAAAAAAAAAAAAAAAAAAAAAAAAAAAAAAAAAAAAAAAAAAAAAAAAAAAAAAAAAAAAAAAAAAAAAAAAAAAAAAAAAAAAAAAAAAAAAAAAAAAAAAAAAAAAAAAAAAAAAAAAAAAAAAAAAAAAAAAAAAAAAAAAAAAAAAAAAAAAAAAAAAAAAAAAAAAAAAAAAAAAAAAAAAAAAAAAAAAAAAAAAAAAAAAAAAAAAAAAAAAAAAAAAAAAAAAAAAAAAAAAAAAAAAAAAAAAAAAAAAAAAAAAAAAAAAAAAAAAAAAAAAAAAAAAAAAAAAAAAAAAAAAAAAAAAAAAAAAAAAAAAAAAAAAAAAAAAAAAAAAAAAAAAAAAAAAAAAAAAAAAAAAAAAAAAAAAAAAAAAAAAAAAAAAAAAAAAAAAAAAAAAAAAAAAAAAAAAAAAAAAAAAAAAAAAAAAAAAAAAAAAAAAAAAAAAAAAAAAAAAAAAAAAAAAAAAAAAAAAAAAAAAAAAAAAAAAAAAAAAAAAAAAAAAAAAAAAAAAAAAAAAAAAAAAAAAAAAAAAAAAAAAAAAAAAAAAAAAAAAAAAAAAAAAAAAAAAAAAAAAAAAAAAAAAAAAAAAAAAAAAAAAAAAAAAAAAAAAAAAAAAAAAAAAAAAAAAAAAAAAAAAAAAAAAAAAAAAAAAAAAAAAAAAAAAAAAAAAAAAAAAAAAAAAAAAAAAAAAAAAAAAAAAAAAAAAAAAAAAAAAAAAAAAAAAAAAAAAAAAAAAAAAAAAAAAAAAAAAAAAAAAAAAAAAAAAAAAAAAAAAAAAAAAAAAAAAAAAAAAAAAAAAAAAAAAAAAAAAAAAAAAAAAAAAAAAAAAAAAAAAAAAAAAAAAAAAAAAAAAAAAAAAAAAAAAAAAAAAAAAAAAAAAAAAAAAAAAAAAAAAAAAAAAAAAAAAAAAAAAAAAAAAAAAAAAAAAAAAAAAAAAAAAAAAAAAAAAAAAAAAAAAAAAAAAAAAAAAAAAAAAAAAAAAAAAAAAAAAAAAAAAAAAAAAAAAAAAAAAAAAAAAAAAAAAAAAAAAAAAAAAAAAAAAAAAAAAAAAAAAAAAAAAAAAAAAAAAAAAAAAAAAAAAAAAAAAAAAAAAAAAAAAAAAAAAAAAAAAAAAAAAAAAAAAAAAAAAAAAAAAAAAAAAAAAAAAAAAAAAAAAAAAAAAAAAAAAAAAAAAAAAAAAAAAAAAAAAAAAAAAAAAAAAAAAAAAAAAAAAAAAAAAAAAAAAAAAAAAAAAAAAAAAAAAAAAAAAAAAAAAAAAAAAAAAAAAAAAAAAAAAAAAAAAAAAAAAAAAAAAAAAAAAAAAAAAAAAAAAAAAAAAAAAAAAAAAAAAAAAAAAAAAAAAAAAAAAAAAAAAAAAAAAAAAAAAAAAAAAAAAAAAAAAAAAAAAAAAAAAAAAAAAAAAAAAAAAAAAAAAAAAAAAAAAAAAAAAAAAAAAAAAAAAAAAAAAAAAAAAAAAAAAAAAAAAAAAAAAAAAAAAAAAAAAAAAAAAAAAAAAAAAAAAAAAAAAAAAAAAAAAAAAAAAAAAAAAAAAAAAAAAAAAAAAAAAAAAAAAAAAAAAAAAAAAAAAAAAAAAAAAAAAAAAAAAAAAAAAAAAAAAAAAAAAAAAAAAAAAAAAAAAAAAAAAAAAAAAAAAAAAAAAAAAAAAAAAAAAAAAAAAAAAAAAAAAAAAAAAAAAAAAAAAAAAAAAAAAAAAAAAAAAAAAAAAAAAAAAAAAAAAAAAAAAAAAAAAAAAAAAAAAAAAAAAAAAAAAAAAAAAAAAAAAAAAAAAAAAAAAAAAAAAAAAAAAAAAAAAAAAAAAAAAAAAAAAAAAAAAAAAAAAAAAAAAAAAAAAAAAAAAAAAAAAAAAAAAAAAAAAAAAAAAAAAAAAAAAAAAAAAAAAAAAAAAAAAAAAAAAAAAAAAAAAAAAAAAAAAAAAAAAAAAAAAAAAAAAAAAAAAAAAAAAAAAAAAAAAAAAAAAAAAAAAAAAAAAAAAAAAAAAAAAAAAAAAAAAAAAAAAAAAAAAAAAAAAAAAAAAAAAAAAAAAAAAAAAAAAAAAAAAAAAAAAAAAAAAAAAAAAAAAAAAAAAAAAAAAAAAAAAAAAAAAAAAAAAAAAAAAAAAAAAAAAAAAAAAAAAAAAAAAAAAAAAAAAAAAAAAAAAAAAAAAAAAAAAAAAAAAAAAAAAAAAAAAAAAAAAAAAAAAAAAAAAAAAAAAAAAAAAAAAAAAAAAAAAAAAAAAAAAAAAAAAAAAAAAAAAAAAAAAAAAAAAAAAAAAAAAAAAAAAAAAAAAAAAAAAAAAAAAAAAAAAAAAAAAAAAAAAAAAAAAAAAAAAAAAAAAAAAAAAAAAAAAAAAAAAAAAAAAAAAAAAAAAAAAAAAAAAAAAAAAAAAAAAAAAAAAAAAAAAAAAAAAAAAAAAAAAAAAAAAAAAAAAAAAAAAAAAAAAAAAAAAAAAAAAAAAAAAAAAAAAAAAAAAAAAAAAAAAAAAAAAAAAAAAAAAAAAAAAAAAAAAAAAAAAAAAAAAAAAAAAAAAAAAAAAAAAAAAAAAAAAAAAAAAAAAAAAAAAAAAAAAAAAAAAAAAAAAAAAAAAAAAAAAAAAAAAAAAAAAAAAAAAAAAAAAAAAAAAAAAAAAAAAAAAAAAAAAAAAAAAAAAAAAAAAAAAAAAAAAAAAAAAAAAAAAAAAAAAAAAAAAAAAAAAAAAAAAAAAAAAAAAAAAAAAAAAAAAAAAAAAAAAAAAAAAAAAAAAAAAAAAAAAAAAAAAAAAAAAAAAAAAAAAAAAAAAAAAAAAAAAAAAAAAAAAAAAAAAAAAAAAAAAAAAAAAAAAAAAAAAAAAAAAAAAAAAAAAAAAAAAAAAAAAAAAAAAAAAAAAAAAAAAAAAAAAAAAAAAAAAAAAAAAAAAAAAAAAAAAAAAAAAAAAAAAAAAAAAAAAAAAAAAAAAAAAAAAAAAAAAAAAAAAAAAAAAAAAAAAAAAAAAAAAAAAAAAAAAAAAAAAAAAAAAAAAAAAAAAAAAAAAAAAAAAAAAAAAAAAAAAAAAAAAAAAAAAAAAAAAAAAAAAAAAAAAAAAAAAAAAAAAAAAAAAAAAAAAAAAAAAAAAAAAAAAAAAAAAAAAAAAAAAAAAAAAAAAAAAAAAAAAAAAAAAAAAAAAAAAAAAAAAAAAAAAAAAAAAAAAAAAAAAAAAAAAAAAAAAAAAAAAAAAAAAAAAAAAAAAAAAAAAAAAAAAAAAAAAAAAAAAAAAAAAAAAAAAAAAAAAAAAAAAAAAAAAAAAAAAAAAAAAAAAAAAAAAAAAAAAAAAAAAAAAAAAAAAAAAAAAAAAAAAAAAAAAAAAAAAAAAAAAAAAAAAAAAAAAAAAAAAAAAAAAAAAAAAAAAAAAAAAAAAAAAAAAAAAAAAAAAAAAAAAAAAAAAAAAAAAAAAAAAAAAAAAAAAAAAAAAAAAAAAAAAAAAAAAAAAAAAAAAAAAAAAAAAAAAAAAAAAAAAAAAAAAAAAAAAAAAAAAAAAAAAAAAAAAAAAAAAAAAAAAAAAAAAAAAAAAAAAAAAAAAAAAAAAAAAAAAAAAAAAAAAAAAAAAAAAAAAAAAAAAAAAAAAAAAAAAAAAAAAAAAAAAAAAAAAAAAAAAAAAAAAAAAAAAAAAAAAAAAAAAAAAAAAAAAAAAAAAAAAAAAAAAAAAAAAAAAAAAAAAAAAAAAAAAAAAAAAAAAAAAAAAAAAAAAAAAAAAAAAAAAAAAAAAAAAAAAAAAAAAAAAAAAAAAAAAAAAAAAAAAAAAAAAAAAAAAAAAAAAAAAAAAAAAAAAAAAAAAAAAAAAAAAAAAAAAAAAAAAAAAAAAAAAAAAAAAAAAAAAAAAAAAAAAAAAAAAAAAAAAAAAAAAAAAAAAAAAAAAAAAAAAAAAAAAAAAAAAAAAAAAAAAAAAAAAAAAAAAAAAAAAAAAAAAAAAAAAAAAAAAAAAAAAAAAAAAAAAAAAAAAAAAAAAAAAAAAAAAAAAAAAAAAAAAAAAAAAAAAAAAAAAAAAAAAAAAAAAAAAAAAAAAAAAAAAAAAAAAAAAAAAAAAAAAAAAAAAAAAAAAAAAAAAAAAAAAAAAAAAAAAAAAAAAAAAAAAAAAAAAAAAAAAAAAAAAAAAAAAAAAAAAAAAAAAAAAAAAAAAAAAAAAAAAAAAAAAAAAAAAAAAAAAAAAAAAAAAAAAAAAAAAAAAAAAAAAAAAAAAAAAAAAAAAAAAAAAAAAAAAAAAAAAAAAAAAAAAAAAAAAAAAAAAAAAAAAAAAAAAAAAAAAAAAAAAAAAAAAAAAAAAAAAAAAAAAAAAAAAAAAAAAAAAAAAAAAAAAAAAAAAAAAAAAAAAAAAAAAAAAAAAAAAAAAAAAAAAAAAAAAAAAAAAAAAAAAAAAAAAAAAAAAAAAAAAAAAAPZYQIoW7Te0gYnd87TZN6FqKsbr+HIzfXFRqloU5U0wl8nnNrAD/h1hh6q+moJIZ33CCAf2nnNexhkNrY6EnJoOGmc=</c2pa:manifest></metadata>
<style>
  text{font-family:Inter,'Segoe UI',system-ui,-apple-system,'Helvetica Neue',Arial,sans-serif;dominant-baseline:middle}
  .t-tit{font-size:17px;font-weight:600;fill:#E6EEF4}
  .t-tit-s{font-size:14.5px;font-weight:600;fill:#E6EEF4}
  .t-sub{font-size:12px;font-weight:400;fill:#A2B5C3}
  .t-sub-s{font-size:11px;font-weight:400;fill:#A2B5C3}
  .t-mini{font-size:10.5px;font-weight:400;fill:#7A8D9C}
  .t-grp{font-size:12px;font-weight:700;fill:#8FB8D6;letter-spacing:.07em}
  .t-grp-s{font-size:11px;font-weight:400;fill:#7A8D9C}
  .t-seta{font-size:11.5px;font-weight:500}
  .t-leg{font-size:11.5px;font-weight:500;fill:#A2B5C3}
  .t-rod{font-size:10px;font-weight:700;fill:#7A8D9C;letter-spacing:.09em}
  .t-cab{font-size:27px;font-weight:700;fill:#EAF2F7}
  .t-cab-s{font-size:13.5px;font-weight:400;fill:#7E97A8}
  .t-cab-r{font-size:10.5px;font-weight:700;fill:#7E97A8;letter-spacing:.09em}
  .cartao{fill:#16222B;stroke:#2A3843;stroke-width:1}
  .grupo{fill:#121E27;stroke:#223039;stroke-width:1}
  .linha{stroke:#243139;stroke-width:1}
  .s-azul{stroke:#5FA8E4} .f-azul{fill:#5FA8E4} .x-azul{fill:#5FA8E4}
  .s-verde{stroke:#41BFA9} .f-verde{fill:#41BFA9} .x-verde{fill:#41BFA9}
  .s-roxo{stroke:#A88BE6} .f-roxo{fill:#A88BE6} .x-roxo{fill:#A88BE6}
  .s-cinza{stroke:#93A7B8} .f-cinza{fill:#93A7B8} .x-cinza{fill:#93A7B8}
  .s-ambar{stroke:#DCA94F} .f-ambar{fill:#DCA94F} .x-ambar{fill:#DCA94F}
  .s-vermelho{stroke:#E0796A} .f-vermelho{fill:#E0796A} .x-vermelho{fill:#E0796A}
  .s-tinta2{stroke:#A2B5C3} .f-tinta2{fill:#A2B5C3} .x-tinta2{fill:#A2B5C3}
  .aresta{fill:none;stroke-width:1.9;stroke-linecap:round;stroke-linejoin:round}
</style>
<defs><marker id="p-azul" viewBox="0 0 10 10" refX="8.5" refY="5" markerWidth="7" markerHeight="7" orient="auto-start-reverse"><path d="M0.5 1.2 9 5 0.5 8.8 2.6 5z" class="f-azul"/></marker><marker id="p-verde" viewBox="0 0 10 10" refX="8.5" refY="5" markerWidth="7" markerHeight="7" orient="auto-start-reverse"><path d="M0.5 1.2 9 5 0.5 8.8 2.6 5z" class="f-verde"/></marker><marker id="p-roxo" viewBox="0 0 10 10" refX="8.5" refY="5" markerWidth="7" markerHeight="7" orient="auto-start-reverse"><path d="M0.5 1.2 9 5 0.5 8.8 2.6 5z" class="f-roxo"/></marker><marker id="p-cinza" viewBox="0 0 10 10" refX="8.5" refY="5" markerWidth="7" markerHeight="7" orient="auto-start-reverse"><path d="M0.5 1.2 9 5 0.5 8.8 2.6 5z" class="f-cinza"/></marker><marker id="p-ambar" viewBox="0 0 10 10" refX="8.5" refY="5" markerWidth="7" markerHeight="7" orient="auto-start-reverse"><path d="M0.5 1.2 9 5 0.5 8.8 2.6 5z" class="f-ambar"/></marker><marker id="p-vermelho" viewBox="0 0 10 10" refX="8.5" refY="5" markerWidth="7" markerHeight="7" orient="auto-start-reverse"><path d="M0.5 1.2 9 5 0.5 8.8 2.6 5z" class="f-vermelho"/></marker><marker id="p-tinta2" viewBox="0 0 10 10" refX="8.5" refY="5" markerWidth="7" markerHeight="7" orient="auto-start-reverse"><path d="M0.5 1.2 9 5 0.5 8.8 2.6 5z" class="f-tinta2"/></marker></defs>
<rect width="1960" height="820" fill="#0C151C"/>
<rect width="1960" height="92" fill="#060F16"/>
<rect x="40" y="26" width="5" height="40" rx="2.5" fill="#3FC7B4"/>
<text x="60" y="35.0" class="t-cab">Cascata da busca de imóveis</text>
<text x="61" y="61.0" class="t-cab-s">Do bairro pedido até a cidade, dizendo sempre até onde precisou ir</text>
<text x="1920" y="46.0" class="t-cab-r" text-anchor="end">MORA · COMITÊ DE ARQUITETURA</text>
<rect x="46" y="236" width="250" height="110" rx="11" class="cartao"/>
<rect x="62" y="253" width="34" height="34" rx="9" fill="#13293A"/>
<g transform="translate(68.0,259.0) scale(0.9167)" fill="none" stroke="#5FA8E4" stroke-width="1.7" stroke-linecap="round" stroke-linejoin="round"><path d="M6.5 3.5h11v17h-11zM9.5 8.5h5M9.5 12h5M9.5 15.5h3"/></g>
<text x="106" y="262" class="t-tit">Cartão do lead</text>
<text x="106" y="284" class="t-sub">Intenção, bairros, preço,</text>
<text x="106" y="300" class="t-sub">quartos, urgência</text>
<rect x="46" y="400" width="250" height="96" rx="11" class="cartao"/>
<rect x="62" y="417" width="34" height="34" rx="9" fill="#241E38"/>
<g transform="translate(68.0,423.0) scale(0.9167)" fill="none" stroke="#A88BE6" stroke-width="1.7" stroke-linecap="round" stroke-linejoin="round"><path d="M3.5 3.5h7v7h-7zM13.5 3.5h7v7h-7zM3.5 13.5h7v7h-7zM13.5 13.5h7v7h-7z"/></g>
<text x="106" y="426" class="t-tit">Um embedding</text>
<text x="106" y="448" class="t-sub">por busca, não por nível</text>
<rect x="380" y="236" width="310" height="110" rx="11" class="cartao"/>
<rect x="396" y="253" width="34" height="34" rx="9" fill="#13293A"/>
<g transform="translate(402.0,259.0) scale(0.9167)" fill="none" stroke="#5FA8E4" stroke-width="1.7" stroke-linecap="round" stroke-linejoin="round"><path d="M12 21a9 9 0 1 0 0-18 9 9 0 0 0 0 18zM12 16.5a4.5 4.5 0 1 0 0-9 4.5 4.5 0 0 0 0 9zM12 13.8a1.8 1.8 0 1 0 0-3.6 1.8 1.8 0 0 0 0 3.6z"/></g>
<text x="440" y="262" class="t-tit-s">Bairro pedido</text>
<text x="440" y="284" class="t-sub">o que o cliente falou</text>
<text x="535.0" y="206" class="t-mini" text-anchor="middle">nível "bairro"</text>
<path d="M690.0 291.0 L780.0 291.0" class="aresta s-azul" marker-end="url(#p-azul)"/>
<text x="735.0" y="266" class="t-seta x-azul" text-anchor="middle">sem resultado</text>
<path d="M535.0 346.0 L535.0 430.0" class="aresta s-cinza"/>
<rect x="780" y="236" width="310" height="110" rx="11" class="cartao"/>
<rect x="796" y="253" width="34" height="34" rx="9" fill="#13293A"/>
<g transform="translate(802.0,259.0) scale(0.9167)" fill="none" stroke="#5FA8E4" stroke-width="1.7" stroke-linecap="round" stroke-linejoin="round"><path d="M11 18.2a7.2 7.2 0 1 0 0-14.4 7.2 7.2 0 0 0 0 14.4zM16.4 16.4 20.5 20.5"/></g>
<text x="840" y="262" class="t-tit-s">Bairros vizinhos</text>
<text x="840" y="284" class="t-sub">mesma região, mais próximos</text>
<text x="935.0" y="206" class="t-mini" text-anchor="middle">nível "vizinhos"</text>
<path d="M1090.0 291.0 L1180.0 291.0" class="aresta s-azul" marker-end="url(#p-azul)"/>
<text x="1135.0" y="266" class="t-seta x-azul" text-anchor="middle">sem resultado</text>
<path d="M935.0 346.0 L935.0 430.0" class="aresta s-cinza"/>
<rect x="1180" y="236" width="310" height="110" rx="11" class="cartao"/>
<rect x="1196" y="253" width="34" height="34" rx="9" fill="#13293A"/>
<g transform="translate(1202.0,259.0) scale(0.9167)" fill="none" stroke="#5FA8E4" stroke-width="1.7" stroke-linecap="round" stroke-linejoin="round"><path d="M11 18.2a7.2 7.2 0 1 0 0-14.4 7.2 7.2 0 0 0 0 14.4zM16.4 16.4 20.5 20.5"/></g>
<text x="1240" y="262" class="t-tit-s">Região</text>
<text x="1240" y="284" class="t-sub">zona sul, oeste…</text>
<text x="1335.0" y="206" class="t-mini" text-anchor="middle">nível "regiao"</text>
<path d="M1490.0 291.0 L1580.0 291.0" class="aresta s-azul" marker-end="url(#p-azul)"/>
<text x="1535.0" y="266" class="t-seta x-azul" text-anchor="middle">sem resultado</text>
<path d="M1335.0 346.0 L1335.0 430.0" class="aresta s-cinza"/>
<rect x="1580" y="236" width="310" height="110" rx="11" class="cartao"/>
<rect x="1596" y="253" width="34" height="34" rx="9" fill="#13293A"/>
<g transform="translate(1602.0,259.0) scale(0.9167)" fill="none" stroke="#5FA8E4" stroke-width="1.7" stroke-linecap="round" stroke-linejoin="round"><path d="M4.5 20.5V5.2l8-2.7v18M12.5 20.5h7V9.5h-7M7.5 8.5h2M7.5 12h2M7.5 15.5h2M15 12.5h1.5M15 16h1.5M2.5 20.5h19"/></g>
<text x="1640" y="262" class="t-tit-s">Cidade</text>
<text x="1640" y="284" class="t-sub">melhor algo bom fora da área</text>
<text x="1640" y="300" class="t-sub">que dizer que não há nada</text>
<text x="1735.0" y="206" class="t-mini" text-anchor="middle">nível "cidade"</text>
<path d="M1735.0 346.0 L1735.0 430.0" class="aresta s-cinza"/>
<rect x="380" y="430" width="1510" height="96" rx="11" class="cartao"/>
<rect x="396" y="447" width="34" height="34" rx="9" fill="#1B262E"/>
<g transform="translate(402.0,453.0) scale(0.9167)" fill="none" stroke="#93A7B8" stroke-width="1.7" stroke-linecap="round" stroke-linejoin="round"><path d="M12 3.5c4.4 0 8 1.2 8 2.7S16.4 9 12 9 4 7.7 4 6.2 7.6 3.5 12 3.5zM4 6.2v11.6c0 1.5 3.6 2.7 8 2.7s8-1.2 8-2.7V6.2M4 12c0 1.5 3.6 2.7 8 2.7s8-1.2 8-2.7"/></g>
<text x="440" y="456" class="t-tit-s">Filtros SQL + similaridade de cosseno, na mesma consulta</text>
<text x="440" y="478" class="t-sub">operação · região · bairros · preço (+15 %) · quartos mínimos — ImovelRepository.buscar_hibrido</text>
<rect x="380" y="588" width="740" height="110" rx="11" class="cartao"/>
<rect x="396" y="605" width="34" height="34" rx="9" fill="#0F2B29"/>
<g transform="translate(402.0,611.0) scale(0.9167)" fill="none" stroke="#41BFA9" stroke-width="1.7" stroke-linecap="round" stroke-linejoin="round"><path d="M12 21a9 9 0 1 0 0-18 9 9 0 0 0 0 18zM8.2 12.2l2.6 2.6 5-5.2"/></g>
<text x="440" y="614" class="t-tit-s">Imóveis recomendados</text>
<text x="440" y="636" class="t-sub">Até 3 por turno, sem repetir o que já foi visto</text>
<text x="440" y="652" class="t-sub">ou descartado (tabela interesses)</text>
<rect x="1150" y="588" width="740" height="110" rx="11" class="cartao"/>
<rect x="1166" y="605" width="34" height="34" rx="9" fill="#0F2B29"/>
<g transform="translate(1172.0,611.0) scale(0.9167)" fill="none" stroke="#41BFA9" stroke-width="1.7" stroke-linecap="round" stroke-linejoin="round"><path d="M8.5 11V5.2a1.7 1.7 0 0 1 3.4 0V11M11.9 11V4.2a1.7 1.7 0 0 1 3.4 0V11M15.3 11V6.2a1.7 1.7 0 0 1 3.4 0v8.3c0 3.7-2.6 6.5-6.4 6.5-3.1 0-4.6-1.3-6.2-3.6l-2-3a1.7 1.7 0 0 1 2.7-2l1.3 1.6"/></g>
<text x="1210" y="614" class="t-tit-s">Alternativa no bairro pedido</text>
<text x="1210" y="636" class="t-sub">Relaxa quartos e depois preço: “de 2 quartos não</text>
<text x="1210" y="652" class="t-sub">tenho aí, mas tenho este de 1”</text>
<path d="M296.0 291.0 L380.0 291.0" class="aresta s-azul" marker-end="url(#p-azul)"/>
<path d="M296.0 448.0 L330.0 448.0 Q340.0 448.0 340.0 458.0 L340.0 468.0 Q340.0 478.0 350.0 478.0 L380.0 478.0" class="aresta s-roxo" marker-end="url(#p-roxo)"/>
<path d="M750.0 526.0 L750.0 588.0" class="aresta s-verde" marker-end="url(#p-verde)"/>
<path d="M1520.0 526.0 L1520.0 588.0" class="aresta s-verde" marker-end="url(#p-verde)"/>
<rect x="330.0" y="720" width="1300" height="30" rx="7" class="cartao"/>
<text x="980" y="735" class="t-sub-s" text-anchor="middle">Sem embedder no ar (Ollama fora, provedor sem chave) a busca cai para os filtros SQL puros e devolve sem_embedding — pior que a semântica, melhor que derrubar o turno.</text>
<line x1="40" y1="774" x2="1920" y2="774" class="linha"/>
<path d="M42.0 800h34" class="aresta s-azul" marker-end="url(#p-azul)"/>
<text x="88.0" y="800" class="t-leg">Descida da cascata</text>
<path d="M502.0 800h34" class="aresta s-roxo" marker-end="url(#p-roxo)"/>
<text x="548.0" y="800" class="t-leg">Vetor</text>
<path d="M962.0 800h34" class="aresta s-verde" marker-end="url(#p-verde)"/>
<text x="1008.0" y="800" class="t-leg">Saída para o cliente</text>
<path d="M1422.0 800h34" class="aresta s-cinza" marker-end="url(#p-cinza)"/>
<text x="1468.0" y="800" class="t-leg">Consulta ao índice</text>
</svg>