<svg xmlns="http://www.w3.org/2000/svg" viewBox="0 0 1840 760" width="1840" height="760" role="img" aria-label="Cliente entra pelo site ou pelo Telegram, os canais publicam no Redis, o agente consome, fala com o modelo e grava no Postgres; o painel do corretor lê pela API." xmlns:c2pa="http://c2pa.org/manifest"><metadata><c2pa:manifest>AAAWgmp1bWIAAAAeanVtZGMycGEAEQAQgAAAqgA4m3EDYzJwYQAAABZcanVtYgAAAEdqdW1kYzJtYQARABCAAACqADibcQN1cm46YzJwYTo0NDdkMGU0ZS05ZDNjLTQ0NzEtYTJkMi0zMzUzYjM5NzliOTAAAAADl2p1bWIAAAApanVtZGMyYXMAEQAQgAAAqgA4m3EDYzJwYS5hc3NlcnRpb25zAAAAALxqdW1iAAAARGp1bWRjYm9yABEAEIAAAKoAOJtxE2MycGEuaW5ncmVkaWVudC52MwAAAAAYYzJzaEBBXTuiYNQnwPi1iOU8eGgAAABwY2JvcqNpZGM6Zm9ybWF0bWltYWdlL3N2Zyt4bWxqaW5zdGFuY2VJRHgseG1wOmlpZDowYTFiOTZiNi0yODNjLTQ5NWEtYTYyYy1jMzg5Yjk1ZGVjZGVscmVsYXRpb25zaGlwaHBhcmVudE9mAAAB4mp1bWIAAABBanVtZGNib3IAEQAQgAAAqgA4m3ETYzJwYS5hY3Rpb25zLnYyAAAAABhjMnNoJaNXaXlddvf9WwZ+NKIPQwAAAZljYm9yomdhY3Rpb25zgqJmYWN0aW9ua2MycGEub3BlbmVkanBhcmFtZXRlcnOha2luZ3JlZGllbnRzgaJjdXJseC1zZWxmI2p1bWJmPWMycGEuYXNzZXJ0aW9ucy9jMnBhLmluZ3JlZGllbnQudjNkaGFzaFgg4pSecazkBJ91rXxFsJzD8OiWShdaVtmYJIgUnpnw7S+kZmFjdGlvbngdY29tLmFudGhyb3BpYy5jbGF1ZGUucHJvdmlkZWRqcGFyYW1ldGVyc6F4H2NvbS5hbnRocm9waWMub3JpZ2luLWNvbmZpZGVuY2VndW5rbm93bmtkZXNjcmlwdGlvbnhmQ2xhdWRlIHByb3ZpZGVkIHRoaXMgZmlsZSBhdCB0aGUgcmVxdWVzdCBvZiBhIHVzZXIgYW5kIG1heSBoYXZlIGNyZWF0ZWQgb3IgbW9kaWZpZWQgdGhlIGZpbGUgY29udGVudHMubXNvZnR3YXJlQWdlbnShZG5hbWVmQ2xhdWRlcmFsbEFjdGlvbnNJbmNsdWRlZPUAAADIanVtYgAAAEBqdW1kY2JvcgARABCAAACqADibcRNjMnBhLmhhc2guZGF0YQAAAAAYYzJzaArk4gDQDH8kDgoaLJG5lCYAAACAY2JvcqVjYWxnZnNoYTI1NmNwYWRMAAAAAAAAAAAAAAAAZGhhc2hYIKWrh1GCBvwnhZzwwOvuMbUObCWIQpxG917V+2pLKnevZG5hbWVuanVtYmYgbWFuaWZlc3RqZXhjbHVzaW9uc4GiZXN0YXJ0GQFTZmxlbmd0aBkeBAAAAj5qdW1iAAAAJ2p1bWRjMmNsABEAEIAAAKoAOJtxA2MycGEuY2xhaW0udjIAAAACD2Nib3KlY2FsZ2ZzaGEyNTZpc2lnbmF0dXJleE1zZWxmI2p1bWJmPS9jMnBhL3VybjpjMnBhOjQ0N2QwZTRlLTlkM2MtNDQ3MS1hMmQyLTMzNTNiMzk3OWI5MC9jMnBhLnNpZ25hdHVyZWppbnN0YW5jZUlEeCx4bXA6aWlkOjk3N2UzYWQ2LTRhN2EtNDljZS05Mjk0LTI4ODUxMzEyNjBjOXJjcmVhdGVkX2Fzc2VydGlvbnODomN1cmx4LXNlbGYjanVtYmY9YzJwYS5hc3NlcnRpb25zL2MycGEuaW5ncmVkaWVudC52M2RoYXNoWCDilJ5xrOQEn3WtfEWwnMPw6JZKF1pW2ZgkiBSemfDtL6JjdXJseCpzZWxmI2p1bWJmPWMycGEuYXNzZXJ0aW9ucy9jMnBhLmFjdGlvbnMudjJkaGFzaFggwg5iopQ/zc1lnNVcJcRtg/F9q09kLZM76DpalucLP5eiY3VybHgpc2VsZiNqdW1iZj1jMnBhLmFzc2VydGlvbnMvYzJwYS5oYXNoLmRhdGFkaGFzaFggRs7wxtd7jhIcE3BB4QMRgmDoBqxEFD7wz6ENGvEvshh0Y2xhaW1fZ2VuZXJhdG9yX2luZm+jZG5hbWVvQW50aHJvcGljIEZpbGVzZ3ZlcnNpb25lMS4wLjBrc3BlY1ZlcnNpb25lMi40LjAAABA4anVtYgAAAChqdW1kYzJjcwARABCAAACqADibcQNjMnBhLnNpZ25hdHVyZQAAABAIY2JvctKEWQISogEmGCFZAgowggIGMIIBjaADAgECAhRA5aAK7sI50L64g/oGQgU9Z1UTADAKBggqhkjOPQQDAzBJMRcwFQYDVQQKEw5BbnRocm9waWMsIFBCQzEuMCwGA1UEAxMlQW50aHJvcGljIENvbnRlbnQgQ3JlZGVudGlhbHMgUm9vdCBDQTAeFw0yNjA4MDcxODQzNTZaFw0yODA4MDYxOTQzNTZaMEQxFzAVBgNVBAoTDkFudGhyb3BpYywgUEJDMSkwJwYDVQQDEyBBbnRocm9waWMgQ2xhdWRlIENvbnRlbnQgU2lnbmluZzBZMBMGByqGSM49AgEGCCqGSM49AwEHA0IABJh6CmvLUBgFFNU0vUKlOVtE6djd17L5SuwX0LemFisBM3dkd/3cyjxFA3Qo5S46fX0/ihY0VZ7mfb9KF703t5OjWDBWMA4GA1UdDwEB/wQEAwIHgDAVBgNVHSUEDjAMBgorBgEEAYPoXgIBMAwGA1UdEwEB/wQCMAAwHwYDVR0jBBgwFoAUzlHiBIFOZFsj+OPEz5o+nMHXXMIwCgYIKoZIzj0EAwMDZwAwZAIwMXMdFJ4BetLLVY7ORuE9noqbbAZOZn/aArXyTwFAZfKrPzxF2vPoJNf1+UCdg1XGAjBwX1zd9WGqYkqmL5SFqw1QySjr1zJfpJM9+1rdDwSPLMOPOjKuiXjoU/pUUeG9RwmhY3BhZFkNngAAAAAAAAAAAAAAAAAAAAAAAAAAAAAAAAAAAAAAAAAAAAAAAAAAAAAAAAAAAAAAAAAAAAAAAAAAAAAAAAAAAAAAAAAAAAAAAAAAAAAAAAAAAAAAAAAAAAAAAAAAAAAAAAAAAAAAAAAAAAAAAAAAAAAAAAAAAAAAAAAAAAAAAAAAAAAAAAAAAAAAAAAAAAAAAAAAAAAAAAAAAAAAAAAAAAAAAAAAAAAAAAAAAAAAAAAAAAAAAAAAAAAAAAAAAAAAAAAAAAAAAAAAAAAAAAAAAAAAAAAAAAAAAAAAAAAAAAAAAAAAAAAAAAAAAAAAAAAAAAAAAAAAAAAAAAAAAAAAAAAAAAAAAAAAAAAAAAAAAAAAAAAAAAAAAAAAAAAAAAAAAAAAAAAAAAAAAAAAAAAAAAAAAAAAAAAAAAAAAAAAAAAAAAAAAAAAAAAAAAAAAAAAAAAAAAAAAAAAAAAAAAAAAAAAAAAAAAAAAAAAAAAAAAAAAAAAAAAAAAAAAAAAAAAAAAAAAAAAAAAAAAAAAAAAAAAAAAAAAAAAAAAAAAAAAAAAAAAAAAAAAAAAAAAAAAAAAAAAAAAAAAAAAAAAAAAAAAAAAAAAAAAAAAAAAAAAAAAAAAAAAAAAAAAAAAAAAAAAAAAAAAAAAAAAAAAAAAAAAAAAAAAAAAAAAAAAAAAAAAAAAAAAAAAAAAAAAAAAAAAAAAAAAAAAAAAAAAAAAAAAAAAAAAAAAAAAAAAAAAAAAAAAAAAAAAAAAAAAAAAAAAAAAAAAAAAAAAAAAAAAAAAAAAAAAAAAAAAAAAAAAAAAAAAAAAAAAAAAAAAAAAAAAAAAAAAAAAAAAAAAAAAAAAAAAAAAAAAAAAAAAAAAAAAAAAAAAAAAAAAAAAAAAAAAAAAAAAAAAAAAAAAAAAAAAAAAAAAAAAAAAAAAAAAAAAAAAAAAAAAAAAAAAAAAAAAAAAAAAAAAAAAAAAAAAAAAAAAAAAAAAAAAAAAAAAAAAAAAAAAAAAAAAAAAAAAAAAAAAAAAAAAAAAAAAAAAAAAAAAAAAAAAAAAAAAAAAAAAAAAAAAAAAAAAAAAAAAAAAAAAAAAAAAAAAAAAAAAAAAAAAAAAAAAAAAAAAAAAAAAAAAAAAAAAAAAAAAAAAAAAAAAAAAAAAAAAAAAAAAAAAAAAAAAAAAAAAAAAAAAAAAAAAAAAAAAAAAAAAAAAAAAAAAAAAAAAAAAAAAAAAAAAAAAAAAAAAAAAAAAAAAAAAAAAAAAAAAAAAAAAAAAAAAAAAAAAAAAAAAAAAAAAAAAAAAAAAAAAAAAAAAAAAAAAAAAAAAAAAAAAAAAAAAAAAAAAAAAAAAAAAAAAAAAAAAAAAAAAAAAAAAAAAAAAAAAAAAAAAAAAAAAAAAAAAAAAAAAAAAAAAAAAAAAAAAAAAAAAAAAAAAAAAAAAAAAAAAAAAAAAAAAAAAAAAAAAAAAAAAAAAAAAAAAAAAAAAAAAAAAAAAAAAAAAAAAAAAAAAAAAAAAAAAAAAAAAAAAAAAAAAAAAAAAAAAAAAAAAAAAAAAAAAAAAAAAAAAAAAAAAAAAAAAAAAAAAAAAAAAAAAAAAAAAAAAAAAAAAAAAAAAAAAAAAAAAAAAAAAAAAAAAAAAAAAAAAAAAAAAAAAAAAAAAAAAAAAAAAAAAAAAAAAAAAAAAAAAAAAAAAAAAAAAAAAAAAAAAAAAAAAAAAAAAAAAAAAAAAAAAAAAAAAAAAAAAAAAAAAAAAAAAAAAAAAAAAAAAAAAAAAAAAAAAAAAAAAAAAAAAAAAAAAAAAAAAAAAAAAAAAAAAAAAAAAAAAAAAAAAAAAAAAAAAAAAAAAAAAAAAAAAAAAAAAAAAAAAAAAAAAAAAAAAAAAAAAAAAAAAAAAAAAAAAAAAAAAAAAAAAAAAAAAAAAAAAAAAAAAAAAAAAAAAAAAAAAAAAAAAAAAAAAAAAAAAAAAAAAAAAAAAAAAAAAAAAAAAAAAAAAAAAAAAAAAAAAAAAAAAAAAAAAAAAAAAAAAAAAAAAAAAAAAAAAAAAAAAAAAAAAAAAAAAAAAAAAAAAAAAAAAAAAAAAAAAAAAAAAAAAAAAAAAAAAAAAAAAAAAAAAAAAAAAAAAAAAAAAAAAAAAAAAAAAAAAAAAAAAAAAAAAAAAAAAAAAAAAAAAAAAAAAAAAAAAAAAAAAAAAAAAAAAAAAAAAAAAAAAAAAAAAAAAAAAAAAAAAAAAAAAAAAAAAAAAAAAAAAAAAAAAAAAAAAAAAAAAAAAAAAAAAAAAAAAAAAAAAAAAAAAAAAAAAAAAAAAAAAAAAAAAAAAAAAAAAAAAAAAAAAAAAAAAAAAAAAAAAAAAAAAAAAAAAAAAAAAAAAAAAAAAAAAAAAAAAAAAAAAAAAAAAAAAAAAAAAAAAAAAAAAAAAAAAAAAAAAAAAAAAAAAAAAAAAAAAAAAAAAAAAAAAAAAAAAAAAAAAAAAAAAAAAAAAAAAAAAAAAAAAAAAAAAAAAAAAAAAAAAAAAAAAAAAAAAAAAAAAAAAAAAAAAAAAAAAAAAAAAAAAAAAAAAAAAAAAAAAAAAAAAAAAAAAAAAAAAAAAAAAAAAAAAAAAAAAAAAAAAAAAAAAAAAAAAAAAAAAAAAAAAAAAAAAAAAAAAAAAAAAAAAAAAAAAAAAAAAAAAAAAAAAAAAAAAAAAAAAAAAAAAAAAAAAAAAAAAAAAAAAAAAAAAAAAAAAAAAAAAAAAAAAAAAAAAAAAAAAAAAAAAAAAAAAAAAAAAAAAAAAAAAAAAAAAAAAAAAAAAAAAAAAAAAAAAAAAAAAAAAAAAAAAAAAAAAAAAAAAAAAAAAAAAAAAAAAAAAAAAAAAAAAAAAAAAAAAAAAAAAAAAAAAAAAAAAAAAAAAAAAAAAAAAAAAAAAAAAAAAAAAAAAAAAAAAAAAAAAAAAAAAAAAAAAAAAAAAAAAAAAAAAAAAAAAAAAAAAAAAAAAAAAAAAAAAAAAAAAAAAAAAAAAAAAAAAAAAAAAAAAAAAAAAAAAAAAAAAAAAAAAAAAAAAAAAAAAAAAAAAAAAAAAAAAAAAAAAAAAAAAAAAAAAAAAAAAAAAAAAAAAAAAAAAAAAAAAAAAAAAAAAAAAAAAAAAAAAAAAAAAAAAAAAAAAAAAAAAAAAAAAAAAAAAAAAAAAAAAAAAAAAAAAAAAAAAAAAAAAAAAAAAAAAAAAAAAAAAAAAAAAAAAAAAAAAAAAAAAAAAAAAAAAAAAAAAAAAAAAAAAAAAAAAAAAAAAAAAAAAAAAAAAAAAAAAAAAAAAAAAAAAAAAAAAAAAAAAAAAAAAAAAAAAAAAAAAAAAAAAAAAAAAAAAAAAAAAAAAAAAAAAAAAAAAAAAAAAAAAAAAAAAAAAAAAAAAAAAAAAAAAAAAAAAAAAAAAAAAAAAAAAAAAAAAAAAAAAAAAAAAAAAAAAAAAAAAAAAAAAAAAAAAAAAAAAAAAAAAAAAAAAAAAAAAAAAAAAAAAAAAAAAAAAAAAAAAAAAAAAAAAAAAAAAAAAAAAAAAAAAAAAAAAAAAAAAAAAAAAAAAAAAAAAAAAAAAAAAAAAAAAAAAAAAAAAAAAAAAAAAAAAAAAAAAAAAAAAAAAAAAAAAAAAAAAAAAAAAAAAAAAAAAAAAAAAAAAAAAAAAAAAAAAAAAAAAAAAAAAAAAAAAAAAAAAAAAAAAAAAAAAAAAAAAAAAAAAAAAAAAAAAAAAAAAAAAAAAAAAAAAAAAAAAAAAAAAAAAAAAAAAAAAAAAAAAAAAAAAAAAAAAAAAAAAAAAAAAAAAAAAAAAAAAAAAAAAAAAAAAAAAAAAAAAAAAAAAAAAAAAAAAAAAAAAAAAAAAAAAAAAAAAAAAAAAAAAAAAAAAAAAAAAAAAAAAAAAAAAAAAAAAAAAAAAAAAAAAAAAAAAAAAAAAAAAAAAAAAAAAAAAAAAAAAAAAAAAAAAAAAAAAAAAAAAAAAAAAAAAAAAAAAAAAAAAAAAAAAAAAAAAAAAAAAAAAAAAAAAAAAAAAAAAAAAAAAAAAAAAAAAAAAAAAAAAAAAAAAAAAAAAAAAAAAAAAAAAAAAAAAAAAAAAAAAAAAAAAAAAAAAAAAAAAAAAAAAAAAAAAAAAAAAAAAAAAAAAAAAAAAAAAAAAAAAAAAAAAAAAAAAAAAAAAAAAAAAAAAAAAAAAAAAAAAAAAAAAAAAAAAAAAAAAAAAAAAAAAAAAAAAAAAAAAAAAAAAAAAAAAAAAAAAAAAAAAAAAAAAAAAAAAAAAAAAAAAAAAAAAAAAAAAAAAAAAAAAAAAAAAAAAAAAAAAAAAAAAAAAAAAAAAAAAAAAAAAAAAAAAAAAAAAAAAAAAAAAAAAAAAAAAAAAAAAAAAAAAAAAAAAAAAAAAAAAAAAAAAAAAAAAAAAAAAAAAAAAAAAAAAAAAAAAAAAAAAAAAAAAAAAAAAAAAAAAAAAAAAAAAAAAAAAAAAAAAAAAAAAAAAAAAAAAAAAAAAAAAAAAAAAAAAAAAAAAAAAAAAAAAAAAAAAAAAAAAAAAAAAAAAAAAAAAAAAAAAAAAAAAAAAAAAAAAAAAAAAAAAAAAAAAAAAAAAAAAAAAAAAAAAAAAAAAAAAAAAAAAAAAAAAAAAAAAAAAAAAAAAAAAAAAAAAAAAAAAAAAAAAAAAAAAAAAAAAAPZYQIqq5FiIgve29B4yeliUpuc3e4es8Y2hJDkvAU4cHExAY6Hd6HFGz4DXZrv1JR5hwAlkoI3f+OQO8VFPf3b4IWo=</c2pa:manifest></metadata>
<style>
  text{font-family:Inter,'Segoe UI',system-ui,-apple-system,'Helvetica Neue',Arial,sans-serif;dominant-baseline:middle}
  .t-tit{font-size:17px;font-weight:600;fill:#12293C}
  .t-tit-s{font-size:14.5px;font-weight:600;fill:#12293C}
  .t-sub{font-size:12px;font-weight:400;fill:#5B7387}
  .t-sub-s{font-size:11px;font-weight:400;fill:#5B7387}
  .t-mini{font-size:10.5px;font-weight:400;fill:#8497A8}
  .t-grp{font-size:12px;font-weight:700;fill:#2C5F84;letter-spacing:.07em}
  .t-grp-s{font-size:11px;font-weight:400;fill:#8497A8}
  .t-seta{font-size:11.5px;font-weight:500}
  .t-leg{font-size:11.5px;font-weight:500;fill:#5B7387}
  .t-rod{font-size:10px;font-weight:700;fill:#8497A8;letter-spacing:.09em}
  .t-cab{font-size:27px;font-weight:700;fill:#FFFFFF}
  .t-cab-s{font-size:13.5px;font-weight:400;fill:#9DB3C4}
  .t-cab-r{font-size:10.5px;font-weight:700;fill:#9DB3C4;letter-spacing:.09em}
  .cartao{fill:#FFFFFF;stroke:#DCE4EC;stroke-width:1}
  .grupo{fill:#E9F1F8;stroke:#D5E2EE;stroke-width:1}
  .linha{stroke:#DCE4EC;stroke-width:1}
  .s-azul{stroke:#2E76B8} .f-azul{fill:#2E76B8} .x-azul{fill:#2E76B8}
  .s-verde{stroke:#0E7F72} .f-verde{fill:#0E7F72} .x-verde{fill:#0E7F72}
  .s-roxo{stroke:#7A4CC0} .f-roxo{fill:#7A4CC0} .x-roxo{fill:#7A4CC0}
  .s-cinza{stroke:#64798C} .f-cinza{fill:#64798C} .x-cinza{fill:#64798C}
  .s-ambar{stroke:#A9701A} .f-ambar{fill:#A9701A} .x-ambar{fill:#A9701A}
  .s-vermelho{stroke:#B04437} .f-vermelho{fill:#B04437} .x-vermelho{fill:#B04437}
  .s-tinta2{stroke:#5B7387} .f-tinta2{fill:#5B7387} .x-tinta2{fill:#5B7387}
  .aresta{fill:none;stroke-width:1.9;stroke-linecap:round;stroke-linejoin:round}
</style>
<defs><marker id="p-azul" viewBox="0 0 10 10" refX="8.5" refY="5" markerWidth="7" markerHeight="7" orient="auto-start-reverse"><path d="M0.5 1.2 9 5 0.5 8.8 2.6 5z" class="f-azul"/></marker><marker id="p-verde" viewBox="0 0 10 10" refX="8.5" refY="5" markerWidth="7" markerHeight="7" orient="auto-start-reverse"><path d="M0.5 1.2 9 5 0.5 8.8 2.6 5z" class="f-verde"/></marker><marker id="p-roxo" viewBox="0 0 10 10" refX="8.5" refY="5" markerWidth="7" markerHeight="7" orient="auto-start-reverse"><path d="M0.5 1.2 9 5 0.5 8.8 2.6 5z" class="f-roxo"/></marker><marker id="p-cinza" viewBox="0 0 10 10" refX="8.5" refY="5" markerWidth="7" markerHeight="7" orient="auto-start-reverse"><path d="M0.5 1.2 9 5 0.5 8.8 2.6 5z" class="f-cinza"/></marker><marker id="p-ambar" viewBox="0 0 10 10" refX="8.5" refY="5" markerWidth="7" markerHeight="7" orient="auto-start-reverse"><path d="M0.5 1.2 9 5 0.5 8.8 2.6 5z" class="f-ambar"/></marker><marker id="p-vermelho" viewBox="0 0 10 10" refX="8.5" refY="5" markerWidth="7" markerHeight="7" orient="auto-start-reverse"><path d="M0.5 1.2 9 5 0.5 8.8 2.6 5z" class="f-vermelho"/></marker><marker id="p-tinta2" viewBox="0 0 10 10" refX="8.5" refY="5" markerWidth="7" markerHeight="7" orient="auto-start-reverse"><path d="M0.5 1.2 9 5 0.5 8.8 2.6 5z" class="f-tinta2"/></marker></defs>
<rect width="1840" height="760" fill="#F4F7FA"/>
<rect width="1840" height="92" fill="#0E2433"/>
<rect x="40" y="26" width="5" height="40" rx="2.5" fill="#3FC7B4"/>
<text x="60" y="35.0" class="t-cab">Mora em uma olhada</text>
<text x="61" y="61.0" class="t-cab-s">Quem fala com quem, do cliente ao banco</text>
<text x="1800" y="46.0" class="t-cab-r" text-anchor="end">MORA · COMITÊ DE ARQUITETURA</text>
<rect x="50" y="210" width="260" height="104" rx="11" class="cartao"/>
<rect x="66" y="227" width="34" height="34" rx="9" fill="#E4EFF9"/>
<g transform="translate(72.0,233.0) scale(0.9167)" fill="none" stroke="#2E76B8" stroke-width="1.7" stroke-linecap="round" stroke-linejoin="round"><path d="M12 12.2a4.1 4.1 0 1 0 0-8.2 4.1 4.1 0 0 0 0 8.2zM4.5 20.5c0-3.7 3.4-6.3 7.5-6.3s7.5 2.6 7.5 6.3"/></g>
<text x="110" y="236" class="t-tit">Cliente</text>
<text x="110" y="258" class="t-sub">Site :5173 ou Telegram</text>
<rect x="370" y="210" width="280" height="104" rx="11" class="cartao"/>
<rect x="386" y="227" width="34" height="34" rx="9" fill="#E4EFF9"/>
<g transform="translate(392.0,233.0) scale(0.9167)" fill="none" stroke="#2E76B8" stroke-width="1.7" stroke-linecap="round" stroke-linejoin="round"><path d="M8.5 8 4.5 12l4 4M15.5 8l4 4-4 4"/></g>
<text x="430" y="236" class="t-tit">Canais</text>
<text x="430" y="258" class="t-sub">channels :8001</text>
<text x="430" y="274" class="t-sub">telegram-in / out</text>
<rect x="710" y="210" width="250" height="104" rx="11" class="cartao"/>
<rect x="726" y="227" width="34" height="34" rx="9" fill="#FAE6E3"/>
<g transform="translate(732.0,233.0) scale(0.9167)" fill="none" stroke="#B04437" stroke-width="1.7" stroke-linecap="round" stroke-linejoin="round"><path d="M12 3.5 3 8l9 4.5L21 8zM3 12.5 12 17l9-4.5M3 16.5 12 21l9-4.5"/></g>
<text x="770" y="236" class="t-tit">Redis</text>
<text x="770" y="258" class="t-sub">Streams e lock por lead</text>
<rect x="1020" y="180" width="320" height="164" rx="11" class="cartao"/>
<rect x="1036" y="197" width="34" height="34" rx="9" fill="#EDE6F9"/>
<g transform="translate(1042.0,203.0) scale(0.9167)" fill="none" stroke="#7A4CC0" stroke-width="1.7" stroke-linecap="round" stroke-linejoin="round"><path d="M12 3.2 13.9 9 19.8 10.9 13.9 12.8 12 18.6 10.1 12.8 4.2 10.9 10.1 9z"/></g>
<text x="1080" y="206" class="t-tit">Agente</text>
<text x="1080" y="228" class="t-sub">services/agent</text>
<text x="1080" y="244" class="t-sub">Grafo LangGraph:</text>
<text x="1080" y="260" class="t-sub">supervisor + 9 especialistas</text>
<rect x="1420" y="150" width="370" height="104" rx="11" class="cartao"/>
<rect x="1436" y="167" width="34" height="34" rx="9" fill="#EDE6F9"/>
<g transform="translate(1442.0,173.0) scale(0.9167)" fill="none" stroke="#7A4CC0" stroke-width="1.7" stroke-linecap="round" stroke-linejoin="round"><path d="M12 3.2 13.9 9 19.8 10.9 13.9 12.8 12 18.6 10.1 12.8 4.2 10.9 10.1 9z"/></g>
<text x="1480" y="176" class="t-tit">Modelos</text>
<text x="1480" y="198" class="t-sub">Anthropic · OpenAI · Ollama</text>
<rect x="1420" y="300" width="370" height="104" rx="11" class="cartao"/>
<rect x="1436" y="317" width="34" height="34" rx="9" fill="#E8EDF2"/>
<g transform="translate(1442.0,323.0) scale(0.9167)" fill="none" stroke="#64798C" stroke-width="1.7" stroke-linecap="round" stroke-linejoin="round"><path d="M12 3.5c4.4 0 8 1.2 8 2.7S16.4 9 12 9 4 7.7 4 6.2 7.6 3.5 12 3.5zM4 6.2v11.6c0 1.5 3.6 2.7 8 2.7s8-1.2 8-2.7V6.2M4 12c0 1.5 3.6 2.7 8 2.7s8-1.2 8-2.7"/></g>
<text x="1480" y="326" class="t-tit">Postgres + pgvector</text>
<text x="1480" y="348" class="t-sub">Leads, imóveis, documentos</text>
<rect x="370" y="520" width="280" height="104" rx="11" class="cartao"/>
<rect x="386" y="537" width="34" height="34" rx="9" fill="#E4EFF9"/>
<g transform="translate(392.0,543.0) scale(0.9167)" fill="none" stroke="#2E76B8" stroke-width="1.7" stroke-linecap="round" stroke-linejoin="round"><path d="M3 5.5h18v13H3zM3 9.5h18M6 7.5h.01M8.5 7.5h.01"/></g>
<text x="430" y="546" class="t-tit">Painel do corretor</text>
<text x="430" y="568" class="t-sub">apps/dashboard :5174</text>
<rect x="790" y="520" width="280" height="104" rx="11" class="cartao"/>
<rect x="806" y="537" width="34" height="34" rx="9" fill="#E8EDF2"/>
<g transform="translate(812.0,543.0) scale(0.9167)" fill="none" stroke="#64798C" stroke-width="1.7" stroke-linecap="round" stroke-linejoin="round"><path d="M13.2 2.5 4.5 13.6h6l-.7 7.9 8.7-11.1h-6z"/></g>
<text x="850" y="546" class="t-tit">API REST</text>
<text x="850" y="568" class="t-sub">services/api :8000</text>
<path d="M310.0 262.0 L370.0 262.0" class="aresta s-azul" marker-end="url(#p-azul)"/>
<path d="M650.0 262.0 L710.0 262.0" class="aresta s-azul" marker-end="url(#p-azul)"/>
<path d="M960.0 246.0 L1020.0 246.0" class="aresta s-azul" marker-end="url(#p-azul)"/>
<text x="990" y="230" class="t-seta x-azul" text-anchor="middle">inbound</text>
<path d="M1180.0 344.0 L1180.0 388.0 Q1180.0 400.0 1168.0 400.0 L847.0 400.0 Q835.0 400.0 835.0 388.0 L835.0 314.0" class="aresta s-verde" marker-end="url(#p-verde)"/>
<text x="1010" y="388" class="t-seta x-verde" text-anchor="middle">resposta neutra</text>
<path d="M760.0 314.0 L760.0 440.0 Q760.0 452.0 748.0 452.0 L522.0 452.0 Q510.0 452.0 510.0 440.0 L510.0 314.0" class="aresta s-verde" marker-end="url(#p-verde)"/>
<text x="636" y="440" class="t-seta x-verde" text-anchor="middle">saída dos canais</text>
<path d="M1340.0 215.0 L1373.5 215.0 Q1380.0 215.0 1380.0 208.5 L1380.0 208.5 Q1380.0 202.0 1386.5 202.0 L1420.0 202.0" class="aresta s-roxo" marker-end="url(#p-roxo)"/>
<text x="1400" y="176" class="t-seta x-roxo" text-anchor="end">Inferência</text>
<path d="M1340.0 318.0 L1372.0 318.0 Q1380.0 318.0 1380.0 326.0 L1380.0 344.0 Q1380.0 352.0 1388.0 352.0 L1420.0 352.0" class="aresta s-cinza" marker-end="url(#p-cinza)"/>
<path d="M650.0 572.0 L790.0 572.0" class="aresta s-cinza" marker-end="url(#p-cinza)"/>
<text x="720" y="556" class="t-seta x-cinza" text-anchor="middle">HTTP</text>
<path d="M1070.0 572.0 L1593.0 572.0 Q1605.0 572.0 1605.0 560.0 L1605.0 404.0" class="aresta s-cinza" marker-end="url(#p-cinza)"/>
<text x="1330" y="556" class="t-seta x-cinza" text-anchor="middle">Leitura / escrita</text>
<path d="M510.0 520.0 L510.0 500.0 Q510.0 490.0 500.0 490.0 L460.0 490.0 Q450.0 490.0 450.0 480.0 L450.0 314.0" class="aresta s-azul" marker-end="url(#p-azul)"/>
<text x="436" y="420" class="t-seta x-azul" text-anchor="end">Tempo real</text>
<line x1="40" y1="674" x2="1800" y2="674" class="linha"/>
<path d="M42.0 700h34" class="aresta s-azul" marker-end="url(#p-azul)"/>
<text x="88.0" y="700" class="t-leg">Entrada e tempo real</text>
<path d="M472.0 700h34" class="aresta s-verde" marker-end="url(#p-verde)"/>
<text x="518.0" y="700" class="t-leg">Retorno ao cliente</text>
<path d="M902.0 700h34" class="aresta s-roxo" marker-end="url(#p-roxo)"/>
<text x="948.0" y="700" class="t-leg">Modelo</text>
<path d="M1332.0 700h34" class="aresta s-cinza" marker-end="url(#p-cinza)"/>
<text x="1378.0" y="700" class="t-leg">Dados</text>
<text x="40" y="740" class="t-rod">MORA · CONTEXTO</text>
</svg>