<svg xmlns="http://www.w3.org/2000/svg" viewBox="0 0 1960 1180" width="1960" height="1180" role="img" aria-label="Jornada do lead: novo, qualificando, qualificado, agendado e handoff, com o desvio de inatividade e a volta por nova oportunidade." xmlns:c2pa="http://c2pa.org/manifest"><metadata><c2pa:manifest>AAAWgmp1bWIAAAAeanVtZGMycGEAEQAQgAAAqgA4m3EDYzJwYQAAABZcanVtYgAAAEdqdW1kYzJtYQARABCAAACqADibcQN1cm46YzJwYTo1NDk1NTM4Ny05ZTE3LTQ4YjctYWZjYS03M2JlZWI4MDc3OWMAAAADl2p1bWIAAAApanVtZGMyYXMAEQAQgAAAqgA4m3EDYzJwYS5hc3NlcnRpb25zAAAAALxqdW1iAAAARGp1bWRjYm9yABEAEIAAAKoAOJtxE2MycGEuaW5ncmVkaWVudC52MwAAAAAYYzJzaCE3JmT/o04hvXT0vAUrLdYAAABwY2JvcqNpZGM6Zm9ybWF0bWltYWdlL3N2Zyt4bWxqaW5zdGFuY2VJRHgseG1wOmlpZDozYTUxYmEzYS00MmQ4LTQ2YjQtOTMwYy04ZWI3NWE3YzI3ZTZscmVsYXRpb25zaGlwaHBhcmVudE9mAAAB4mp1bWIAAABBanVtZGNib3IAEQAQgAAAqgA4m3ETYzJwYS5hY3Rpb25zLnYyAAAAABhjMnNoKiN6bxCUWCDnPtzBUFFEdgAAAZljYm9yomdhY3Rpb25zgqJmYWN0aW9ua2MycGEub3BlbmVkanBhcmFtZXRlcnOha2luZ3JlZGllbnRzgaJjdXJseC1zZWxmI2p1bWJmPWMycGEuYXNzZXJ0aW9ucy9jMnBhLmluZ3JlZGllbnQudjNkaGFzaFggK4Zokd9hyoi0ZySZcK9q4SFx3tx5RuCRDmHGWQbrRGKkZmFjdGlvbngdY29tLmFudGhyb3BpYy5jbGF1ZGUucHJvdmlkZWRqcGFyYW1ldGVyc6F4H2NvbS5hbnRocm9waWMub3JpZ2luLWNvbmZpZGVuY2VndW5rbm93bmtkZXNjcmlwdGlvbnhmQ2xhdWRlIHByb3ZpZGVkIHRoaXMgZmlsZSBhdCB0aGUgcmVxdWVzdCBvZiBhIHVzZXIgYW5kIG1heSBoYXZlIGNyZWF0ZWQgb3IgbW9kaWZpZWQgdGhlIGZpbGUgY29udGVudHMubXNvZnR3YXJlQWdlbnShZG5hbWVmQ2xhdWRlcmFsbEFjdGlvbnNJbmNsdWRlZPUAAADIanVtYgAAAEBqdW1kY2JvcgARABCAAACqADibcRNjMnBhLmhhc2guZGF0YQAAAAAYYzJzaGpUYHiaZAxUU2CQ7Y6zYnsAAACAY2JvcqVjYWxnZnNoYTI1NmNwYWRMAAAAAAAAAAAAAAAAZGhhc2hYINqNSqx0Boc7z/19k+4+RWW6I+0/titC+UQva+zvDtn+ZG5hbWVuanVtYmYgbWFuaWZlc3RqZXhjbHVzaW9uc4GiZXN0YXJ0GQE1Zmxlbmd0aBkeBAAAAj5qdW1iAAAAJ2p1bWRjMmNsABEAEIAAAKoAOJtxA2MycGEuY2xhaW0udjIAAAACD2Nib3KlY2FsZ2ZzaGEyNTZpc2lnbmF0dXJleE1zZWxmI2p1bWJmPS9jMnBhL3VybjpjMnBhOjU0OTU1Mzg3LTllMTctNDhiNy1hZmNhLTczYmVlYjgwNzc5Yy9jMnBhLnNpZ25hdHVyZWppbnN0YW5jZUlEeCx4bXA6aWlkOjJiMTJlNDM5LWYwNzMtNGJlNi1iN2FhLWZkMDYwNjA0ODIzOXJjcmVhdGVkX2Fzc2VydGlvbnODomN1cmx4LXNlbGYjanVtYmY9YzJwYS5hc3NlcnRpb25zL2MycGEuaW5ncmVkaWVudC52M2RoYXNoWCArhmiR32HKiLRnJJlwr2rhIXHe3HlG4JEOYcZZButEYqJjdXJseCpzZWxmI2p1bWJmPWMycGEuYXNzZXJ0aW9ucy9jMnBhLmFjdGlvbnMudjJkaGFzaFggHmsjpMM8SpIUCUUu4OHha660HDCptJ/fbYL/AmBie8WiY3VybHgpc2VsZiNqdW1iZj1jMnBhLmFzc2VydGlvbnMvYzJwYS5oYXNoLmRhdGFkaGFzaFggDvuKzEFznu+EPy6gC89KITJ8BtSKBoXG2377FElOD5B0Y2xhaW1fZ2VuZXJhdG9yX2luZm+jZG5hbWVvQW50aHJvcGljIEZpbGVzZ3ZlcnNpb25lMS4wLjBrc3BlY1ZlcnNpb25lMi40LjAAABA4anVtYgAAAChqdW1kYzJjcwARABCAAACqADibcQNjMnBhLnNpZ25hdHVyZQAAABAIY2JvctKEWQISogEmGCFZAgowggIGMIIBjaADAgECAhRA5aAK7sI50L64g/oGQgU9Z1UTADAKBggqhkjOPQQDAzBJMRcwFQYDVQQKEw5BbnRocm9waWMsIFBCQzEuMCwGA1UEAxMlQW50aHJvcGljIENvbnRlbnQgQ3JlZGVudGlhbHMgUm9vdCBDQTAeFw0yNjA4MDcxODQzNTZaFw0yODA4MDYxOTQzNTZaMEQxFzAVBgNVBAoTDkFudGhyb3BpYywgUEJDMSkwJwYDVQQDEyBBbnRocm9waWMgQ2xhdWRlIENvbnRlbnQgU2lnbmluZzBZMBMGByqGSM49AgEGCCqGSM49AwEHA0IABJh6CmvLUBgFFNU0vUKlOVtE6djd17L5SuwX0LemFisBM3dkd/3cyjxFA3Qo5S46fX0/ihY0VZ7mfb9KF703t5OjWDBWMA4GA1UdDwEB/wQEAwIHgDAVBgNVHSUEDjAMBgorBgEEAYPoXgIBMAwGA1UdEwEB/wQCMAAwHwYDVR0jBBgwFoAUzlHiBIFOZFsj+OPEz5o+nMHXXMIwCgYIKoZIzj0EAwMDZwAwZAIwMXMdFJ4BetLLVY7ORuE9noqbbAZOZn/aArXyTwFAZfKrPzxF2vPoJNf1+UCdg1XGAjBwX1zd9WGqYkqmL5SFqw1QySjr1zJfpJM9+1rdDwSPLMOPOjKuiXjoU/pUUeG9RwmhY3BhZFkNngAAAAAAAAAAAAAAAAAAAAAAAAAAAAAAAAAAAAAAAAAAAAAAAAAAAAAAAAAAAAAAAAAAAAAAAAAAAAAAAAAAAAAAAAAAAAAAAAAAAAAAAAAAAAAAAAAAAAAAAAAAAAAAAAAAAAAAAAAAAAAAAAAAAAAAAAAAAAAAAAAAAAAAAAAAAAAAAAAAAAAAAAAAAAAAAAAAAAAAAAAAAAAAAAAAAAAAAAAAAAAAAAAAAAAAAAAAAAAAAAAAAAAAAAAAAAAAAAAAAAAAAAAAAAAAAAAAAAAAAAAAAAAAAAAAAAAAAAAAAAAAAAAAAAAAAAAAAAAAAAAAAAAAAAAAAAAAAAAAAAAAAAAAAAAAAAAAAAAAAAAAAAAAAAAAAAAAAAAAAAAAAAAAAAAAAAAAAAAAAAAAAAAAAAAAAAAAAAAAAAAAAAAAAAAAAAAAAAAAAAAAAAAAAAAAAAAAAAAAAAAAAAAAAAAAAAAAAAAAAAAAAAAAAAAAAAAAAAAAAAAAAAAAAAAAAAAAAAAAAAAAAAAAAAAAAAAAAAAAAAAAAAAAAAAAAAAAAAAAAAAAAAAAAAAAAAAAAAAAAAAAAAAAAAAAAAAAAAAAAAAAAAAAAAAAAAAAAAAAAAAAAAAAAAAAAAAAAAAAAAAAAAAAAAAAAAAAAAAAAAAAAAAAAAAAAAAAAAAAAAAAAAAAAAAAAAAAAAAAAAAAAAAAAAAAAAAAAAAAAAAAAAAAAAAAAAAAAAAAAAAAAAAAAAAAAAAAAAAAAAAAAAAAAAAAAAAAAAAAAAAAAAAAAAAAAAAAAAAAAAAAAAAAAAAAAAAAAAAAAAAAAAAAAAAAAAAAAAAAAAAAAAAAAAAAAAAAAAAAAAAAAAAAAAAAAAAAAAAAAAAAAAAAAAAAAAAAAAAAAAAAAAAAAAAAAAAAAAAAAAAAAAAAAAAAAAAAAAAAAAAAAAAAAAAAAAAAAAAAAAAAAAAAAAAAAAAAAAAAAAAAAAAAAAAAAAAAAAAAAAAAAAAAAAAAAAAAAAAAAAAAAAAAAAAAAAAAAAAAAAAAAAAAAAAAAAAAAAAAAAAAAAAAAAAAAAAAAAAAAAAAAAAAAAAAAAAAAAAAAAAAAAAAAAAAAAAAAAAAAAAAAAAAAAAAAAAAAAAAAAAAAAAAAAAAAAAAAAAAAAAAAAAAAAAAAAAAAAAAAAAAAAAAAAAAAAAAAAAAAAAAAAAAAAAAAAAAAAAAAAAAAAAAAAAAAAAAAAAAAAAAAAAAAAAAAAAAAAAAAAAAAAAAAAAAAAAAAAAAAAAAAAAAAAAAAAAAAAAAAAAAAAAAAAAAAAAAAAAAAAAAAAAAAAAAAAAAAAAAAAAAAAAAAAAAAAAAAAAAAAAAAAAAAAAAAAAAAAAAAAAAAAAAAAAAAAAAAAAAAAAAAAAAAAAAAAAAAAAAAAAAAAAAAAAAAAAAAAAAAAAAAAAAAAAAAAAAAAAAAAAAAAAAAAAAAAAAAAAAAAAAAAAAAAAAAAAAAAAAAAAAAAAAAAAAAAAAAAAAAAAAAAAAAAAAAAAAAAAAAAAAAAAAAAAAAAAAAAAAAAAAAAAAAAAAAAAAAAAAAAAAAAAAAAAAAAAAAAAAAAAAAAAAAAAAAAAAAAAAAAAAAAAAAAAAAAAAAAAAAAAAAAAAAAAAAAAAAAAAAAAAAAAAAAAAAAAAAAAAAAAAAAAAAAAAAAAAAAAAAAAAAAAAAAAAAAAAAAAAAAAAAAAAAAAAAAAAAAAAAAAAAAAAAAAAAAAAAAAAAAAAAAAAAAAAAAAAAAAAAAAAAAAAAAAAAAAAAAAAAAAAAAAAAAAAAAAAAAAAAAAAAAAAAAAAAAAAAAAAAAAAAAAAAAAAAAAAAAAAAAAAAAAAAAAAAAAAAAAAAAAAAAAAAAAAAAAAAAAAAAAAAAAAAAAAAAAAAAAAAAAAAAAAAAAAAAAAAAAAAAAAAAAAAAAAAAAAAAAAAAAAAAAAAAAAAAAAAAAAAAAAAAAAAAAAAAAAAAAAAAAAAAAAAAAAAAAAAAAAAAAAAAAAAAAAAAAAAAAAAAAAAAAAAAAAAAAAAAAAAAAAAAAAAAAAAAAAAAAAAAAAAAAAAAAAAAAAAAAAAAAAAAAAAAAAAAAAAAAAAAAAAAAAAAAAAAAAAAAAAAAAAAAAAAAAAAAAAAAAAAAAAAAAAAAAAAAAAAAAAAAAAAAAAAAAAAAAAAAAAAAAAAAAAAAAAAAAAAAAAAAAAAAAAAAAAAAAAAAAAAAAAAAAAAAAAAAAAAAAAAAAAAAAAAAAAAAAAAAAAAAAAAAAAAAAAAAAAAAAAAAAAAAAAAAAAAAAAAAAAAAAAAAAAAAAAAAAAAAAAAAAAAAAAAAAAAAAAAAAAAAAAAAAAAAAAAAAAAAAAAAAAAAAAAAAAAAAAAAAAAAAAAAAAAAAAAAAAAAAAAAAAAAAAAAAAAAAAAAAAAAAAAAAAAAAAAAAAAAAAAAAAAAAAAAAAAAAAAAAAAAAAAAAAAAAAAAAAAAAAAAAAAAAAAAAAAAAAAAAAAAAAAAAAAAAAAAAAAAAAAAAAAAAAAAAAAAAAAAAAAAAAAAAAAAAAAAAAAAAAAAAAAAAAAAAAAAAAAAAAAAAAAAAAAAAAAAAAAAAAAAAAAAAAAAAAAAAAAAAAAAAAAAAAAAAAAAAAAAAAAAAAAAAAAAAAAAAAAAAAAAAAAAAAAAAAAAAAAAAAAAAAAAAAAAAAAAAAAAAAAAAAAAAAAAAAAAAAAAAAAAAAAAAAAAAAAAAAAAAAAAAAAAAAAAAAAAAAAAAAAAAAAAAAAAAAAAAAAAAAAAAAAAAAAAAAAAAAAAAAAAAAAAAAAAAAAAAAAAAAAAAAAAAAAAAAAAAAAAAAAAAAAAAAAAAAAAAAAAAAAAAAAAAAAAAAAAAAAAAAAAAAAAAAAAAAAAAAAAAAAAAAAAAAAAAAAAAAAAAAAAAAAAAAAAAAAAAAAAAAAAAAAAAAAAAAAAAAAAAAAAAAAAAAAAAAAAAAAAAAAAAAAAAAAAAAAAAAAAAAAAAAAAAAAAAAAAAAAAAAAAAAAAAAAAAAAAAAAAAAAAAAAAAAAAAAAAAAAAAAAAAAAAAAAAAAAAAAAAAAAAAAAAAAAAAAAAAAAAAAAAAAAAAAAAAAAAAAAAAAAAAAAAAAAAAAAAAAAAAAAAAAAAAAAAAAAAAAAAAAAAAAAAAAAAAAAAAAAAAAAAAAAAAAAAAAAAAAAAAAAAAAAAAAAAAAAAAAAAAAAAAAAAAAAAAAAAAAAAAAAAAAAAAAAAAAAAAAAAAAAAAAAAAAAAAAAAAAAAAAAAAAAAAAAAAAAAAAAAAAAAAAAAAAAAAAAAAAAAAAAAAAAAAAAAAAAAAAAAAAAAAAAAAAAAAAAAAAAAAAAAAAAAAAAAAAAAAAAAAAAAAAAAAAAAAAAAAAAAAAAAAAAAAAAAAAAAAAAAAAAAAAAAAAAAAAAAAAAAAAAAAAAAAAAAAAAAAAAAAAAAAAAAAAAAAAAAAAAAAAAAAAAAAAAAAAAAAAAAAAAAAAAAAAAAAAAAAAAAAAAAAAAAAAAAAAAAAAAAAAAAAAAAAAAAAAAAAAAAAAAAAAAAAAAAAAAAAAAAAAAAAAAAAAAAAAAAAAAAAAAAAAAAAAAAAAAAAAAAAAAAAAAAAAAAAAAAAAAAAAAAAAAAAAAAAAAAAAAAAAAAAAAAAAAAAAAAAAAAAAAAAAAAAAAAAAAAAAAAAAAAAAAAAAAAAAAAAAAAAAAAAAAAAAAAAAAAAAAAAAAAAAAAAAAAAAAAAAAAAAAAAAAAAAAAAAAAAAAAAAAAAAAAAAAAAAAAAAAAAAAAAAAAAAAAAAAAAAAAAAAAAAAAAAAAAAAAAAAAAAAAAAAAAAAAAAAAAAAAAAAAAAAAAAAAAAAAAAAAAAAAAAAAAAAAAAAAAAAAAAAAAAAAAAAAAAAAAAAAAAAAAAAAAAAAAAAAAAAAAAAAAAAAAAAAAAAAAAAAAAAAAAAAAAAAAAAAAAAAAAAAAAAAAAAAAAAAAAAAAAAAAAAAAAAAAAAAAAAAAAAAAAAAAAAAAAAAAAAAAAAAAAAAAAAAAAAAAAAAAAAAAAAAAAAAAAAAAAAAAAAAAAAAAAAAAAAAAAAAAAAAAAAAAAAAAAAAAAAAAAAAAAAAAAAAAAAAAAAAAAAAAAAAAAAAAAAAAAAAAAAAAAAAAAAAAAAAAAAAAAAAAAAAAAAAAAAAAAAAAAAAAAAAAAAAAAAAAAAAAAAAAAAAAAAAAAAAAAAAAAAAAAAAAAAAAAAAAAAAAAAAAAAAAAAAAAAAAAAAAAAAAAAAAAAAAAAAAAAAAAAAAAAAAAAAAAAAAAAAAAAAAAAAAAAAAAAAAAAAAAAAAAAAAAAAAAAAAAAAAAAAAAAAAAAAAAAAAAAAAAAAAAAAAAAAAAAAAAAAAAAAAAAAAAAAAAAAAAAAAAAAAAAAAAAAAAAAAAAAAAAAAAAAAAAAAAAAAAAAAAAAAAAAAAAAAAAAAAAAAAAAAAAAAAAAAAAAAAAAAAAAAAAAAAAAAAAAAAAAAAAAAAAAAAAAAAAAAAAAAAAAAAAAAAAAAAAAAAAAAAAAAAAAAAAAAAAAAAAAAAAAAAAAAAAAAAAAAAAAAAAAAAAAAAAAAAAAAAAAAAAAAAAAAAPZYQJPQTqQKng46OcgjdeYlIWtzhZosCQNyKZeke0t4WJsGyrqR5bbNPQhUGFpCCROXkH0c+ZPYskdgdarroZemb2Q=</c2pa:manifest></metadata>
<style>
  text{font-family:Inter,'Segoe UI',system-ui,-apple-system,'Helvetica Neue',Arial,sans-serif;dominant-baseline:middle}
  .t-tit{font-size:17px;font-weight:600;fill:#12293C}
  .t-tit-s{font-size:14.5px;font-weight:600;fill:#12293C}
  .t-sub{font-size:12px;font-weight:400;fill:#5B7387}
  .t-sub-s{font-size:11px;font-weight:400;fill:#5B7387}
  .t-mini{font-size:10.5px;font-weight:400;fill:#8497A8}
  .t-grp{font-size:12px;font-weight:700;fill:#2C5F84;letter-spacing:.07em}
  .t-grp-s{font-size:11px;font-weight:400;fill:#8497A8}
  .t-seta{font-size:11.5px;font-weight:500}
  .t-leg{font-size:11.5px;font-weight:500;fill:#5B7387}
  .t-rod{font-size:10px;font-weight:700;fill:#8497A8;letter-spacing:.09em}
  .t-cab{font-size:27px;font-weight:700;fill:#FFFFFF}
  .t-cab-s{font-size:13.5px;font-weight:400;fill:#9DB3C4}
  .t-cab-r{font-size:10.5px;font-weight:700;fill:#9DB3C4;letter-spacing:.09em}
  .cartao{fill:#FFFFFF;stroke:#DCE4EC;stroke-width:1}
  .grupo{fill:#E9F1F8;stroke:#D5E2EE;stroke-width:1}
  .linha{stroke:#DCE4EC;stroke-width:1}
  .s-azul{stroke:#2E76B8} .f-azul{fill:#2E76B8} .x-azul{fill:#2E76B8}
  .s-verde{stroke:#0E7F72} .f-verde{fill:#0E7F72} .x-verde{fill:#0E7F72}
  .s-roxo{stroke:#7A4CC0} .f-roxo{fill:#7A4CC0} .x-roxo{fill:#7A4CC0}
  .s-cinza{stroke:#64798C} .f-cinza{fill:#64798C} .x-cinza{fill:#64798C}
  .s-ambar{stroke:#A9701A} .f-ambar{fill:#A9701A} .x-ambar{fill:#A9701A}
  .s-vermelho{stroke:#B04437} .f-vermelho{fill:#B04437} .x-vermelho{fill:#B04437}
  .s-tinta2{stroke:#5B7387} .f-tinta2{fill:#5B7387} .x-tinta2{fill:#5B7387}
  .aresta{fill:none;stroke-width:1.9;stroke-linecap:round;stroke-linejoin:round}
</style>
<defs><marker id="p-azul" viewBox="0 0 10 10" refX="8.5" refY="5" markerWidth="7" markerHeight="7" orient="auto-start-reverse"><path d="M0.5 1.2 9 5 0.5 8.8 2.6 5z" class="f-azul"/></marker><marker id="p-verde" viewBox="0 0 10 10" refX="8.5" refY="5" markerWidth="7" markerHeight="7" orient="auto-start-reverse"><path d="M0.5 1.2 9 5 0.5 8.8 2.6 5z" class="f-verde"/></marker><marker id="p-roxo" viewBox="0 0 10 10" refX="8.5" refY="5" markerWidth="7" markerHeight="7" orient="auto-start-reverse"><path d="M0.5 1.2 9 5 0.5 8.8 2.6 5z" class="f-roxo"/></marker><marker id="p-cinza" viewBox="0 0 10 10" refX="8.5" refY="5" markerWidth="7" markerHeight="7" orient="auto-start-reverse"><path d="M0.5 1.2 9 5 0.5 8.8 2.6 5z" class="f-cinza"/></marker><marker id="p-ambar" viewBox="0 0 10 10" refX="8.5" refY="5" markerWidth="7" markerHeight="7" orient="auto-start-reverse"><path d="M0.5 1.2 9 5 0.5 8.8 2.6 5z" class="f-ambar"/></marker><marker id="p-vermelho" viewBox="0 0 10 10" refX="8.5" refY="5" markerWidth="7" markerHeight="7" orient="auto-start-reverse"><path d="M0.5 1.2 9 5 0.5 8.8 2.6 5z" class="f-vermelho"/></marker><marker id="p-tinta2" viewBox="0 0 10 10" refX="8.5" refY="5" markerWidth="7" markerHeight="7" orient="auto-start-reverse"><path d="M0.5 1.2 9 5 0.5 8.8 2.6 5z" class="f-tinta2"/></marker></defs>
<rect width="1960" height="1180" fill="#F4F7FA"/>
<rect width="1960" height="92" fill="#0E2433"/>
<rect x="40" y="26" width="5" height="40" rx="2.5" fill="#3FC7B4"/>
<text x="60" y="35.0" class="t-cab">Jornada do lead</text>
<text x="61" y="61.0" class="t-cab-s">Máquina de estados, na leitura de quem opera</text>
<text x="1920" y="46.0" class="t-cab-r" text-anchor="end">MORA</text>
<text x="40" y="150" class="t-grp">01 QUALIFICAÇÃO E ENCAMINHAMENTO</text>
<circle cx="80" cy="305" r="10" fill="#12293C"/>
<rect x="130" y="250" width="300" height="110" rx="11" class="cartao"/>
<rect x="130" y="250" width="4.5" height="110" rx="2.2" class="f-azul"/>
<rect x="146" y="267" width="34" height="34" rx="9" fill="#E4EFF9"/>
<g transform="translate(152.0,273.0) scale(0.9167)" fill="none" stroke="#2E76B8" stroke-width="1.7" stroke-linecap="round" stroke-linejoin="round"><path d="M20.5 12.5c0 4-3.8 7.2-8.5 7.2-1.2 0-2.3-.2-3.3-.5l-5.2 1.6 1.7-4.3a6.8 6.8 0 0 1-1.7-4.4c0-4 3.8-7.2 8.5-7.2s8.5 3.2 8.5 7.2z"/></g>
<text x="190" y="276" class="t-tit">Novo</text>
<text x="190" y="298" class="t-sub">lead recebido</text>
<rect x="570" y="250" width="320" height="110" rx="11" class="cartao"/>
<rect x="570" y="250" width="4.5" height="110" rx="2.2" class="f-azul"/>
<rect x="586" y="267" width="34" height="34" rx="9" fill="#E4EFF9"/>
<g transform="translate(592.0,273.0) scale(0.9167)" fill="none" stroke="#2E76B8" stroke-width="1.7" stroke-linecap="round" stroke-linejoin="round"><path d="M6.5 3.5h11v17h-11zM9.5 8.5h5M9.5 12h5M9.5 15.5h3"/></g>
<text x="630" y="276" class="t-tit">Qualificando</text>
<text x="630" y="298" class="t-sub">coletando as preferências</text>
<rect x="1030" y="250" width="320" height="110" rx="11" class="cartao"/>
<rect x="1030" y="250" width="4.5" height="110" rx="2.2" class="f-verde"/>
<rect x="1046" y="267" width="34" height="34" rx="9" fill="#DDF0EC"/>
<g transform="translate(1052.0,273.0) scale(0.9167)" fill="none" stroke="#0E7F72" stroke-width="1.7" stroke-linecap="round" stroke-linejoin="round"><path d="M12 21a9 9 0 1 0 0-18 9 9 0 0 0 0 18zM8.2 12.2l2.6 2.6 5-5.2"/></g>
<text x="1090" y="276" class="t-tit">Qualificado</text>
<text x="1090" y="298" class="t-sub">cartão completo + score</text>
<rect x="1490" y="250" width="320" height="110" rx="11" class="cartao"/>
<rect x="1490" y="250" width="4.5" height="110" rx="2.2" class="f-roxo"/>
<rect x="1506" y="267" width="34" height="34" rx="9" fill="#EDE6F9"/>
<g transform="translate(1512.0,273.0) scale(0.9167)" fill="none" stroke="#7A4CC0" stroke-width="1.7" stroke-linecap="round" stroke-linejoin="round"><path d="M4.5 5.5h15v15h-15zM4.5 10h15M8.5 3v4.5M15.5 3v4.5M9 15l2.2 2.2L15.5 13"/></g>
<text x="1550" y="276" class="t-tit">Agendado</text>
<text x="1550" y="298" class="t-sub">visita reservada</text>
<rect x="1490" y="640" width="320" height="110" rx="11" class="cartao"/>
<rect x="1490" y="640" width="4.5" height="110" rx="2.2" class="f-verde"/>
<rect x="1506" y="657" width="34" height="34" rx="9" fill="#DDF0EC"/>
<g transform="translate(1512.0,663.0) scale(0.9167)" fill="none" stroke="#0E7F72" stroke-width="1.7" stroke-linecap="round" stroke-linejoin="round"><path d="M12 12.2a4.1 4.1 0 1 0 0-8.2 4.1 4.1 0 0 0 0 8.2zM4.5 20.5c0-3.7 3.4-6.3 7.5-6.3s7.5 2.6 7.5 6.3"/></g>
<text x="1550" y="666" class="t-tit">Handoff</text>
<text x="1550" y="688" class="t-sub">com o corretor</text>
<circle cx="1650" cy="860" r="11" fill="none" stroke="#12293C" stroke-width="2"/>
<circle cx="1650" cy="860" r="6" fill="#12293C"/>
<text x="1672" y="860" class="t-tit-s">fim do fluxo automatizado</text>
<path d="M92.0 305.0 L130.0 305.0" class="aresta s-tinta2" marker-end="url(#p-tinta2)"/>
<path d="M430.0 305.0 L570.0 305.0" class="aresta s-tinta2" marker-end="url(#p-tinta2)"/>
<text x="500" y="272" class="t-seta x-tinta2" text-anchor="middle">intenção</text>
<text x="500" y="287" class="t-seta x-tinta2" text-anchor="middle">identificada</text>
<path d="M650.0 250.0 L650.0 216.0 Q650.0 206.0 660.0 206.0 L800.0 206.0 Q810.0 206.0 810.0 216.0 L810.0 250.0" class="aresta s-tinta2" marker-end="url(#p-tinta2)"/>
<text x="730" y="176" class="t-seta x-tinta2" text-anchor="middle">preenche o cartão: região,</text>
<text x="730" y="191" class="t-seta x-tinta2" text-anchor="middle">preço, quartos, urgência</text>
<path d="M890.0 305.0 L1030.0 305.0" class="aresta s-tinta2" marker-end="url(#p-tinta2)"/>
<text x="960" y="272" class="t-seta x-tinta2" text-anchor="middle">cartão completo</text>
<text x="960" y="287" class="t-seta x-tinta2" text-anchor="middle">+ score</text>
<path d="M1350.0 305.0 L1490.0 305.0" class="aresta s-tinta2" marker-end="url(#p-tinta2)"/>
<text x="1420" y="272" class="t-seta x-tinta2" text-anchor="middle">reserva de visita</text>
<text x="1420" y="287" class="t-seta x-tinta2" text-anchor="middle">(só pessoa confirma)</text>
<path d="M1650.0 360.0 L1650.0 640.0" class="aresta s-tinta2" marker-end="url(#p-tinta2)"/>
<text x="1664" y="480" class="t-seta x-tinta2" text-anchor="start">o cliente</text>
<text x="1664" y="495" class="t-seta x-tinta2" text-anchor="start">pede corretor</text>
<path d="M1190.0 360.0 L1190.0 576.0 Q1190.0 590.0 1204.0 590.0 L1556.0 590.0 Q1570.0 590.0 1570.0 604.0 L1570.0 640.0" class="aresta s-tinta2" marker-end="url(#p-tinta2)"/>
<text x="1204" y="420" class="t-seta x-tinta2" text-anchor="start">corretor assume,</text>
<text x="1204" y="435" class="t-seta x-tinta2" text-anchor="start">falha do turno ou</text>
<text x="1204" y="450" class="t-seta x-tinta2" text-anchor="start">teto de orçamento</text>
<path d="M1650.0 750.0 L1650.0 838.0" class="aresta s-tinta2" marker-end="url(#p-tinta2)"/>
<rect x="100" y="500" width="1050" height="420" rx="14" fill="#FBF1DF" stroke="#E8D5AE" stroke-width="1"/>
<text x="120" y="522" class="t-grp x-ambar">02 INATIVIDADE E REENGAJAMENTO</text>
<text x="120" y="540" class="t-grp-s">o silêncio do cliente tem cadência própria</text>
<rect x="570" y="570" width="320" height="110" rx="11" class="cartao"/>
<rect x="570" y="570" width="4.5" height="110" rx="2.2" class="f-ambar"/>
<rect x="586" y="587" width="34" height="34" rx="9" fill="#FBF1DF"/>
<g transform="translate(592.0,593.0) scale(0.9167)" fill="none" stroke="#A9701A" stroke-width="1.7" stroke-linecap="round" stroke-linejoin="round"><path d="M12 21a9 9 0 1 0 0-18 9 9 0 0 0 0 18zM12 7.2V12l3.2 2"/></g>
<text x="630" y="596" class="t-tit">Inativo</text>
<text x="630" y="618" class="t-sub">aguardando retorno</text>
<rect x="150" y="750" width="320" height="110" rx="11" class="cartao"/>
<rect x="150" y="750" width="4.5" height="110" rx="2.2" class="f-cinza"/>
<rect x="166" y="767" width="34" height="34" rx="9" fill="#E8EDF2"/>
<g transform="translate(172.0,773.0) scale(0.9167)" fill="none" stroke="#64798C" stroke-width="1.7" stroke-linecap="round" stroke-linejoin="round"><path d="M12 2.8v18.4M4 7.4l16 9.2M20 7.4 4 16.6M12 6.5 9.5 4.6M12 6.5l2.5-1.9M12 17.5l-2.5 1.9M12 17.5l2.5 1.9"/></g>
<text x="210" y="776" class="t-tit">Frio</text>
<text x="210" y="798" class="t-sub">esgotaram as tentativas</text>
<path d="M280.0 360.0 L280.0 430.0" class="aresta s-ambar" stroke-dasharray="6 5"/>
<path d="M1110.0 360.0 L1110.0 430.0" class="aresta s-ambar" stroke-dasharray="6 5"/>
<path d="M730.0 360.0 L730.0 430.0" class="aresta s-ambar" stroke-dasharray="6 5"/>
<path d="M280.0 430.0 L1110.0 430.0" class="aresta s-ambar" stroke-dasharray="6 5"/>
<path d="M730.0 430.0 L730.0 570.0" class="aresta s-ambar" stroke-dasharray="6 5" marker-end="url(#p-ambar)"/>
<text x="745" y="480" class="t-seta x-ambar" text-anchor="start">sem resposta na cadência</text>
<text x="745" y="495" class="t-seta x-ambar" text-anchor="start">do follow-up</text>
<path d="M890.0 600.0 L936.0 600.0 Q945.0 600.0 945.0 609.0 L945.0 646.0 Q945.0 655.0 936.0 655.0 L890.0 655.0" class="aresta s-ambar" stroke-dasharray="6 5" marker-end="url(#p-ambar)"/>
<text x="960" y="628" class="t-seta x-ambar" text-anchor="start">nova</text>
<text x="960" y="643" class="t-seta x-ambar" text-anchor="start">tentativa</text>
<path d="M570.0 640.0 L324.0 640.0 Q310.0 640.0 310.0 654.0 L310.0 750.0" class="aresta s-ambar" stroke-dasharray="6 5" marker-end="url(#p-ambar)"/>
<text x="324" y="700" class="t-seta x-ambar" text-anchor="start">esgotaram as</text>
<text x="324" y="715" class="t-seta x-ambar" text-anchor="start">tentativas</text>
<path d="M890.0 690.0 L1490.0 690.0" class="aresta s-verde" marker-end="url(#p-verde)"/>
<text x="1190" y="668" class="t-seta x-verde" text-anchor="middle">o cliente volta e pede o corretor</text>
<rect x="510.0" y="730" width="620" height="78" rx="7" class="cartao"/>
<text x="820" y="745" class="t-sub-s" text-anchor="middle">A cadência não é fixa: 120, 1440 e 4320 minutos multiplicados pelo ritmo da</text>
<text x="820" y="761" class="t-sub-s" text-anchor="middle">temperatura (quente 0,25 · morno 1 · frio 2), sempre dentro de 08:00–20:00 em SP.</text>
<text x="820" y="777" class="t-sub-s" text-anchor="middle">Não há volta automática de Inativo para Qualificando — o retorno do cliente é um</text>
<text x="820" y="793" class="t-sub-s" text-anchor="middle">turno novo, roteado pelo que ele disser.</text>
<path d="M1650.0 880.0 L1650.0 994.0 Q1650.0 1010.0 1634.0 1010.0 L56.0 1010.0 Q40.0 1010.0 40.0 994.0 L40.0 216.0 Q40.0 200.0 56.0 200.0 L554.0 200.0 Q570.0 200.0 570.0 216.0 L570.0 250.0" class="aresta s-cinza" stroke-dasharray="6 5" marker-end="url(#p-cinza)"/>
<text x="300" y="1036" class="t-seta x-cinza" text-anchor="start">nova oportunidade (sucessora): o mesmo cliente volta com outra intenção — o lead antigo fica encerrado</text>
<line x1="40" y1="1104" x2="1920" y2="1104" class="linha"/>
<path d="M42.0 1130h34" class="aresta s-tinta2" marker-end="url(#p-tinta2)"/>
<text x="88.0" y="1130" class="t-leg">Transição do lead</text>
<path d="M502.0 1130h34" class="aresta s-ambar" stroke-dasharray="5 4" marker-end="url(#p-ambar)"/>
<text x="548.0" y="1130" class="t-leg">Ausência de resposta</text>
<path d="M962.0 1130h34" class="aresta s-verde" marker-end="url(#p-verde)"/>
<text x="1008.0" y="1130" class="t-leg">Volta ao atendimento</text>
<path d="M1422.0 1130h34" class="aresta s-cinza" stroke-dasharray="5 4" marker-end="url(#p-cinza)"/>
<text x="1468.0" y="1130" class="t-leg">Nova oportunidade</text>
<text x="40" y="1160" class="t-rod">JORNADA DO LEAD</text>
</svg>