<svg xmlns="http://www.w3.org/2000/svg" viewBox="0 0 2000 1470" width="2000" height="1470" role="img" aria-label="Diagrama macro: site e Telegram entram pelos canais, que publicam no Redis; o agente consome a fila, fala com os modelos, grava no Postgres e espelha no CRM por MCP; painel e API leem o mesmo banco.">
<style>
  text{font-family:Inter,'Segoe UI',system-ui,-apple-system,'Helvetica Neue',Arial,sans-serif;dominant-baseline:middle}
  .t-tit{font-size:17px;font-weight:600;fill:#12293C}
  .t-tit-s{font-size:14.5px;font-weight:600;fill:#12293C}
  .t-sub{font-size:12px;font-weight:400;fill:#5B7387}
  .t-sub-s{font-size:11px;font-weight:400;fill:#5B7387}
  .t-mini{font-size:10.5px;font-weight:400;fill:#8497A8}
  .t-grp{font-size:12px;font-weight:700;fill:#2C5F84;letter-spacing:.07em}
  .t-grp-s{font-size:11px;font-weight:400;fill:#8497A8}
  .t-seta{font-size:11.5px;font-weight:500}
  .t-leg{font-size:11.5px;font-weight:500;fill:#5B7387}
  .t-rod{font-size:10px;font-weight:700;fill:#8497A8;letter-spacing:.09em}
  .t-cab{font-size:27px;font-weight:700;fill:#FFFFFF}
  .t-cab-s{font-size:13.5px;font-weight:400;fill:#9DB3C4}
  .t-cab-r{font-size:13px;font-weight:700;fill:#9DB3C4;letter-spacing:.34em;opacity:.72}
  .cartao{fill:#FFFFFF;stroke:#DCE4EC;stroke-width:1}
  .grupo{fill:#E9F1F8;stroke:#D5E2EE;stroke-width:1}
  .linha{stroke:#DCE4EC;stroke-width:1}
  .s-azul{stroke:#2E76B8} .f-azul{fill:#2E76B8} .x-azul{fill:#2E76B8}
  .s-verde{stroke:#0E7F72} .f-verde{fill:#0E7F72} .x-verde{fill:#0E7F72}
  .s-roxo{stroke:#7A4CC0} .f-roxo{fill:#7A4CC0} .x-roxo{fill:#7A4CC0}
  .s-cinza{stroke:#64798C} .f-cinza{fill:#64798C} .x-cinza{fill:#64798C}
  .s-ambar{stroke:#A9701A} .f-ambar{fill:#A9701A} .x-ambar{fill:#A9701A}
  .s-vermelho{stroke:#B04437} .f-vermelho{fill:#B04437} .x-vermelho{fill:#B04437}
  .s-tinta2{stroke:#5B7387} .f-tinta2{fill:#5B7387} .x-tinta2{fill:#5B7387}
  .aresta{fill:none;stroke-width:1.9;stroke-linecap:round;stroke-linejoin:round}
</style>
<defs><marker id="p-azul" viewBox="0 0 10 10" refX="8.5" refY="5" markerWidth="7" markerHeight="7" orient="auto-start-reverse"><path d="M0.5 1.2 9 5 0.5 8.8 2.6 5z" class="f-azul"/></marker><marker id="p-verde" viewBox="0 0 10 10" refX="8.5" refY="5" markerWidth="7" markerHeight="7" orient="auto-start-reverse"><path d="M0.5 1.2 9 5 0.5 8.8 2.6 5z" class="f-verde"/></marker><marker id="p-roxo" viewBox="0 0 10 10" refX="8.5" refY="5" markerWidth="7" markerHeight="7" orient="auto-start-reverse"><path d="M0.5 1.2 9 5 0.5 8.8 2.6 5z" class="f-roxo"/></marker><marker id="p-cinza" viewBox="0 0 10 10" refX="8.5" refY="5" markerWidth="7" markerHeight="7" orient="auto-start-reverse"><path d="M0.5 1.2 9 5 0.5 8.8 2.6 5z" class="f-cinza"/></marker><marker id="p-ambar" viewBox="0 0 10 10" refX="8.5" refY="5" markerWidth="7" markerHeight="7" orient="auto-start-reverse"><path d="M0.5 1.2 9 5 0.5 8.8 2.6 5z" class="f-ambar"/></marker><marker id="p-vermelho" viewBox="0 0 10 10" refX="8.5" refY="5" markerWidth="7" markerHeight="7" orient="auto-start-reverse"><path d="M0.5 1.2 9 5 0.5 8.8 2.6 5z" class="f-vermelho"/></marker><marker id="p-tinta2" viewBox="0 0 10 10" refX="8.5" refY="5" markerWidth="7" markerHeight="7" orient="auto-start-reverse"><path d="M0.5 1.2 9 5 0.5 8.8 2.6 5z" class="f-tinta2"/></marker></defs>
<rect width="2000" height="1470" fill="#F4F7FA"/>
<rect width="2000" height="92" fill="#0E2433"/>
<rect x="40" y="26" width="5" height="40" rx="2.5" fill="#3FC7B4"/>
<text x="60" y="35.0" class="t-cab">Arquitetura — Mora, agente SDR imobiliário</text>
<text x="61" y="61.0" class="t-cab-s">Visão macro: entrada, canais, fila, agente, modelos, dados e o CRM à parte</text>
<text x="1960" y="46.0" class="t-cab-r" text-anchor="end">MORA</text>
<rect x="40" y="250" width="330" height="450" rx="14" class="grupo"/>
<text x="60" y="272" class="t-grp">01 PORTA DE ENTRADA</text>
<text x="60" y="290" class="t-grp-s">Experiência e aquisição</text>
<rect x="64" y="306" width="282" height="100" rx="11" class="cartao"/>
<rect x="80" y="323" width="34" height="34" rx="9" fill="#E4EFF9"/>
<g transform="translate(86.0,329.0) scale(0.9167)" fill="none" stroke="#2E76B8" stroke-width="1.7" stroke-linecap="round" stroke-linejoin="round"><path d="M3 5.5h18v13H3zM3 9.5h18M6 7.5h.01M8.5 7.5h.01"/></g>
<text x="124" y="332" class="t-tit">Site / PWA</text>
<text x="124" y="354" class="t-sub">apps/web :5173</text>
<text x="124" y="370" class="t-sub">Vitrine + widget de chat</text>
<rect x="64" y="540" width="282" height="100" rx="11" class="cartao"/>
<rect x="80" y="557" width="34" height="34" rx="9" fill="#E4EFF9"/>
<g transform="translate(86.0,563.0) scale(0.9167)" fill="none" stroke="#2E76B8" stroke-width="1.7" stroke-linecap="round" stroke-linejoin="round"><path d="M21.5 3.5 2.5 10.2l6.6 2.3 2.3 6.6z M9.1 12.5 21.5 3.5"/></g>
<text x="124" y="566" class="t-tit">Telegram</text>
<text x="124" y="588" class="t-sub">Bot API · long polling</text>
<text x="124" y="604" class="t-sub">getUpdates</text>
<path d="M205.0 406.0 L205.0 540.0" class="aresta s-azul" marker-end="url(#p-azul)"/>
<text x="219" y="452" class="t-seta x-azul" text-anchor="start">t.me/bot</text>
<text x="219" y="467" class="t-seta x-azul" text-anchor="start">?start=imovel</text>
<rect x="420" y="250" width="330" height="450" rx="14" class="grupo"/>
<text x="440" y="272" class="t-grp">02 CANAIS</text>
<text x="440" y="290" class="t-grp-s">services/channels</text>
<rect x="444" y="306" width="282" height="100" rx="11" class="cartao"/>
<rect x="460" y="323" width="34" height="34" rx="9" fill="#E4EFF9"/>
<g transform="translate(466.0,329.0) scale(0.9167)" fill="none" stroke="#2E76B8" stroke-width="1.7" stroke-linecap="round" stroke-linejoin="round"><path d="M8.5 8 4.5 12l4 4M15.5 8l4 4-4 4"/></g>
<text x="504" y="332" class="t-tit">Channels</text>
<text x="504" y="354" class="t-sub">:8001 · HTTP + WebSocket</text>
<text x="504" y="370" class="t-sub">Sessão assinada do widget</text>
<rect x="444" y="540" width="282" height="100" rx="11" class="cartao"/>
<rect x="460" y="557" width="34" height="34" rx="9" fill="#E4EFF9"/>
<g transform="translate(466.0,563.0) scale(0.9167)" fill="none" stroke="#2E76B8" stroke-width="1.7" stroke-linecap="round" stroke-linejoin="round"><path d="M21.5 3.5 2.5 10.2l6.6 2.3 2.3 6.6z M9.1 12.5 21.5 3.5"/></g>
<text x="504" y="566" class="t-tit">Telegram I/O</text>
<text x="504" y="588" class="t-sub">telegram-in · long polling</text>
<text x="504" y="604" class="t-sub">telegram-out · envio</text>
<path d="M346.0 356.0 L444.0 356.0" class="aresta s-azul" marker-end="url(#p-azul)"/>
<text x="395" y="344" class="t-seta x-azul" text-anchor="middle">WS</text>
<path d="M346.0 590.0 L444.0 590.0" class="aresta s-azul" marker-end="url(#p-azul)"/>
<text x="800" y="312" class="t-grp">03 MENSAGERIA</text>
<rect x="800" y="400" width="240" height="148" rx="11" class="cartao"/>
<rect x="816" y="417" width="34" height="34" rx="9" fill="#FAE6E3"/>
<g transform="translate(822.0,423.0) scale(0.9167)" fill="none" stroke="#B04437" stroke-width="1.7" stroke-linecap="round" stroke-linejoin="round"><path d="M12 3.5 3 8l9 4.5L21 8zM3 12.5 12 17l9-4.5M3 16.5 12 21l9-4.5"/></g>
<text x="860" y="426" class="t-tit">Redis</text>
<text x="860" y="448" class="t-sub">Streams: inbound,</text>
<text x="860" y="464" class="t-sub">outbound-*, resumir,</text>
<text x="860" y="480" class="t-sub">events · lock por lead</text>
<path d="M726.0 356.0 L758.0 356.0 Q770.0 356.0 770.0 368.0 L770.0 418.0 Q770.0 430.0 782.0 430.0 L800.0 430.0" class="aresta s-azul" marker-end="url(#p-azul)"/>
<path d="M726.0 590.0 L758.0 590.0 Q770.0 590.0 770.0 578.0 L770.0 530.0 Q770.0 518.0 782.0 518.0 L800.0 518.0" class="aresta s-azul" marker-end="url(#p-azul)"/>
<rect x="1090" y="236" width="450" height="620" rx="14" class="grupo"/>
<text x="1110" y="258" class="t-grp">04 AGENTE</text>
<text x="1110" y="276" class="t-grp-s">services/agent · worker em container</text>
<rect x="1114" y="296" width="402" height="66" rx="11" class="cartao"/>
<rect x="1130" y="312.0" width="34" height="34" rx="9" fill="#EDE6F9"/>
<g transform="translate(1136.0,318.0) scale(0.9167)" fill="none" stroke="#7A4CC0" stroke-width="1.7" stroke-linecap="round" stroke-linejoin="round"><path d="M12 3.2 13.9 9 19.8 10.9 13.9 12.8 12 18.6 10.1 12.8 4.2 10.9 10.1 9z"/></g>
<text x="1174" y="329.0" class="t-tit-s">Supervisor</text>
<rect x="1114" y="392" width="126" height="54" rx="9" class="cartao"/>
<text x="1177" y="419" class="t-sub" text-anchor="middle" style="font-weight:600;font-size:12.5px">Qualificador</text>
<rect x="1250" y="392" width="126" height="54" rx="9" class="cartao"/>
<text x="1313" y="419" class="t-sub" text-anchor="middle" style="font-weight:600;font-size:12.5px">Consultor</text>
<rect x="1386" y="392" width="126" height="54" rx="9" class="cartao"/>
<text x="1449" y="419" class="t-sub" text-anchor="middle" style="font-weight:600;font-size:12.5px">Agendador</text>
<rect x="1114" y="458" width="126" height="54" rx="9" class="cartao"/>
<text x="1177" y="485" class="t-sub" text-anchor="middle" style="font-weight:600;font-size:12.5px">Informações</text>
<rect x="1250" y="458" width="126" height="54" rx="9" class="cartao"/>
<text x="1313" y="485" class="t-sub" text-anchor="middle" style="font-weight:600;font-size:12.5px">Handoff</text>
<rect x="1386" y="458" width="126" height="54" rx="9" class="cartao"/>
<text x="1449" y="485" class="t-sub" text-anchor="middle" style="font-weight:600;font-size:12.5px">Recusa</text>
<rect x="1114" y="524" width="126" height="54" rx="9" class="cartao"/>
<text x="1177" y="551" class="t-sub" text-anchor="middle" style="font-weight:600;font-size:12.5px">Follow-up</text>
<rect x="1250" y="524" width="126" height="54" rx="9" class="cartao"/>
<text x="1313" y="551" class="t-sub" text-anchor="middle" style="font-weight:600;font-size:12.5px">Reativador</text>
<rect x="1386" y="524" width="126" height="54" rx="9" class="cartao"/>
<text x="1449" y="551" class="t-sub" text-anchor="middle" style="font-weight:600;font-size:12.5px">Resumidor</text>
<path d="M1315.0 362.0 L1315.0 386.0" class="aresta s-roxo"/>
<text x="1114" y="618" class="t-mini">Regras determinísticas antes do modelo · MAX_SALTOS 4 · histórico podado 40 → 24</text>
<rect x="1114" y="646" width="402" height="86" rx="11" class="cartao"/>
<rect x="1130" y="663" width="34" height="34" rx="9" fill="#EDE6F9"/>
<g transform="translate(1136.0,669.0) scale(0.9167)" fill="none" stroke="#7A4CC0" stroke-width="1.7" stroke-linecap="round" stroke-linejoin="round"><path d="M12 2.8 4.5 6v6c0 4.6 3.2 7.8 7.5 9.2 4.3-1.4 7.5-4.6 7.5-9.2V6z"/></g>
<text x="1174" y="672" class="t-tit-s">Guardrails</text>
<text x="1174" y="694" class="t-sub">Porteiro de escopo · prompts blindados</text>
<text x="1174" y="710" class="t-sub">saída saneada · vazão por lead</text>
<rect x="1114" y="748" width="402" height="86" rx="11" class="cartao"/>
<rect x="1130" y="765" width="34" height="34" rx="9" fill="#EDE6F9"/>
<g transform="translate(1136.0,771.0) scale(0.9167)" fill="none" stroke="#7A4CC0" stroke-width="1.7" stroke-linecap="round" stroke-linejoin="round"><path d="M12 21a9 9 0 1 0 0-18 9 9 0 0 0 0 18zM12 16.5a4.5 4.5 0 1 0 0-9 4.5 4.5 0 0 0 0 9zM12 13.8a1.8 1.8 0 1 0 0-3.6 1.8 1.8 0 0 0 0 3.6z"/></g>
<text x="1174" y="774" class="t-tit-s">Governança</text>
<text x="1174" y="796" class="t-sub">Modelo por papel · orçamento</text>
<text x="1174" y="812" class="t-sub">custo, tokens e latência por nó</text>
<path d="M1040.0 440.0 L1090.0 440.0" class="aresta s-azul" marker-end="url(#p-azul)"/>
<text x="1065" y="424" class="t-seta x-azul" text-anchor="middle">inbound</text>
<path d="M1090.0 510.0 L1072.0 510.0 Q1060.0 510.0 1060.0 522.0 L1060.0 536.0 Q1060.0 548.0 1048.0 548.0 L920.0 548.0" class="aresta s-verde" marker-end="url(#p-verde)"/>
<text x="1000" y="586" class="t-seta x-verde" text-anchor="middle">resposta</text>
<text x="1000" y="601" class="t-seta x-verde" text-anchor="middle">neutra</text>
<path d="M860.0 548.0 L860.0 732.0 Q860.0 744.0 848.0 744.0 L572.0 744.0 Q560.0 744.0 560.0 732.0 L560.0 700.0" class="aresta s-verde" marker-end="url(#p-verde)"/>
<text x="706" y="732" class="t-seta x-verde" text-anchor="middle">saída dos canais</text>
<rect x="1590" y="236" width="370" height="372" rx="14" class="grupo"/>
<text x="1610" y="258" class="t-grp">05 MODELOS</text>
<text x="1610" y="276" class="t-grp-s">Um por papel, trocável pelo painel</text>
<rect x="1614" y="296" width="322" height="128" rx="11" class="cartao"/>
<rect x="1630" y="313" width="34" height="34" rx="9" fill="#EDE6F9"/>
<g transform="translate(1636.0,319.0) scale(0.9167)" fill="none" stroke="#7A4CC0" stroke-width="1.7" stroke-linecap="round" stroke-linejoin="round"><path d="M12 3.2 13.9 9 19.8 10.9 13.9 12.8 12 18.6 10.1 12.8 4.2 10.9 10.1 9z"/></g>
<text x="1674" y="322" class="t-tit">LLMs</text>
<text x="1674" y="344" class="t-sub">Anthropic · OpenAI · Ollama</text>
<text x="1674" y="360" class="t-sub">Conversa, roteamento e análise</text>
<text x="1674" y="376" class="t-sub">Um modelo por papel</text>
<rect x="1614" y="448" width="322" height="128" rx="11" class="cartao"/>
<rect x="1630" y="465" width="34" height="34" rx="9" fill="#EDE6F9"/>
<g transform="translate(1636.0,471.0) scale(0.9167)" fill="none" stroke="#7A4CC0" stroke-width="1.7" stroke-linecap="round" stroke-linejoin="round"><path d="M3.5 3.5h7v7h-7zM13.5 3.5h7v7h-7zM3.5 13.5h7v7h-7zM13.5 13.5h7v7h-7z"/></g>
<text x="1674" y="474" class="t-tit">Embeddings</text>
<text x="1674" y="496" class="t-sub">Ollama bge-m3 ou OpenAI</text>
<text x="1674" y="512" class="t-sub">text-embedding-3-small</text>
<text x="1674" y="528" class="t-sub">1024 dimensões</text>
<path d="M1540.0 330.0 L1614.0 330.0" class="aresta s-roxo" marker-end="url(#p-roxo)"/>
<text x="1577" y="314" class="t-seta x-roxo" text-anchor="middle">Inferência</text>
<path d="M1540.0 500.0 L1614.0 500.0" class="aresta s-roxo" marker-end="url(#p-roxo)"/>
<text x="1577" y="484" class="t-seta x-roxo" text-anchor="middle">Embedding</text>
<rect x="1114" y="112" width="402" height="92" rx="11" class="cartao"/>
<rect x="1130" y="129" width="34" height="34" rx="9" fill="#DDF0EC"/>
<g transform="translate(1136.0,135.0) scale(0.9167)" fill="none" stroke="#0E7F72" stroke-width="1.7" stroke-linecap="round" stroke-linejoin="round"><path d="M12 21a9 9 0 1 0 0-18 9 9 0 0 0 0 18zM12 7.2V12l3.2 2"/></g>
<text x="1174" y="138" class="t-tit-s">Scheduler</text>
<text x="1174" y="160" class="t-sub">Laço de 30 s: follow-up vencido, amostra de</text>
<text x="1174" y="176" class="t-sub">saúde, fila do CRM, reindexação do acervo</text>
<path d="M1315.0 236.0 L1315.0 204.0" class="aresta s-verde" marker-end="url(#p-verde)"/>
<text x="1330" y="220" class="t-seta x-verde" text-anchor="start">reagenda o follow-up</text>
<path d="M1114.0 158.0 L952.0 158.0 Q940.0 158.0 940.0 170.0 L940.0 400.0" class="aresta s-verde" marker-end="url(#p-verde)"/>
<text x="950" y="232" class="t-seta x-verde" text-anchor="start">publica o</text>
<text x="950" y="247" class="t-seta x-verde" text-anchor="start">turno vencido</text>
<rect x="1590" y="660" width="370" height="368" rx="14" class="grupo"/>
<text x="1610" y="682" class="t-grp">06 CRM DA IMOBILIÁRIA</text>
<text x="1610" y="700" class="t-grp-s">Sistema à parte, com banco próprio</text>
<rect x="1614" y="716" width="155" height="66" rx="9" class="cartao"/>
<rect x="1614" y="716" width="4" height="66" rx="2" class="f-verde"/>
<text x="1691.5" y="740.0" class="t-tit-s" text-anchor="middle">crm-mcp :8200</text>
<text x="1691.5" y="759.0" class="t-sub-s" text-anchor="middle">18 ferramentas</text>
<rect x="1781" y="716" width="155" height="66" rx="9" class="cartao"/>
<rect x="1781" y="716" width="4" height="66" rx="2" class="f-azul"/>
<text x="1858.5" y="740.0" class="t-tit-s" text-anchor="middle">apps/crm :3000</text>
<text x="1858.5" y="759.0" class="t-sub-s" text-anchor="middle">interface do corretor</text>
<rect x="1614" y="820" width="322" height="56" rx="9" class="cartao"/>
<rect x="1614" y="820" width="4" height="56" rx="2" class="f-verde"/>
<text x="1775.0" y="848.0" class="t-tit-s" text-anchor="middle">crm-api :8100</text>
<rect x="1614" y="916" width="322" height="66" rx="9" class="cartao"/>
<rect x="1614" y="916" width="4" height="66" rx="2" class="f-cinza"/>
<text x="1775.0" y="940.0" class="t-tit-s" text-anchor="middle">Banco crm</text>
<text x="1775.0" y="959.0" class="t-sub-s" text-anchor="middle">mesmo servidor Postgres, banco à parte</text>
<path d="M1691.0 782.0 L1691.0 794.0 Q1691.0 802.0 1699.0 802.0 L1767.0 802.0 Q1775.0 802.0 1775.0 810.0 L1775.0 820.0" class="aresta s-cinza" marker-end="url(#p-cinza)"/>
<path d="M1858.0 782.0 L1858.0 794.0 Q1858.0 802.0 1850.0 802.0 L1783.0 802.0 Q1775.0 802.0 1775.0 810.0 L1775.0 820.0" class="aresta s-cinza" marker-end="url(#p-cinza)"/>
<path d="M1775.0 876.0 L1775.0 916.0" class="aresta s-cinza" marker-end="url(#p-cinza)"/>
<path d="M1540.0 749.0 L1614.0 749.0" class="aresta s-verde" marker-end="url(#p-verde)"/>
<text x="1577" y="733" class="t-seta x-verde" text-anchor="middle">MCP</text>
<text x="40" y="1062" class="t-grp">07 OPERAÇÃO E DADOS</text>
<rect x="40" y="1096" width="330" height="104" rx="11" class="cartao"/>
<rect x="56" y="1113" width="34" height="34" rx="9" fill="#E4EFF9"/>
<g transform="translate(62.0,1119.0) scale(0.9167)" fill="none" stroke="#2E76B8" stroke-width="1.7" stroke-linecap="round" stroke-linejoin="round"><path d="M3 5.5h18v13H3zM3 9.5h18M6 7.5h.01M8.5 7.5h.01"/></g>
<text x="100" y="1122" class="t-tit">Painel da Mora</text>
<text x="100" y="1144" class="t-sub">apps/dashboard :5174</text>
<text x="100" y="1160" class="t-sub">Leads, governança, saúde</text>
<rect x="440" y="1096" width="310" height="104" rx="11" class="cartao"/>
<rect x="456" y="1113" width="34" height="34" rx="9" fill="#E8EDF2"/>
<g transform="translate(462.0,1119.0) scale(0.9167)" fill="none" stroke="#64798C" stroke-width="1.7" stroke-linecap="round" stroke-linejoin="round"><path d="M13.2 2.5 4.5 13.6h6l-.7 7.9 8.7-11.1h-6z"/></g>
<text x="500" y="1122" class="t-tit">API REST</text>
<text x="500" y="1144" class="t-sub">services/api :8000</text>
<text x="500" y="1160" class="t-sub">FastAPI</text>
<rect x="1090" y="1096" width="450" height="104" rx="11" class="cartao"/>
<rect x="1106" y="1113" width="34" height="34" rx="9" fill="#E8EDF2"/>
<g transform="translate(1112.0,1119.0) scale(0.9167)" fill="none" stroke="#64798C" stroke-width="1.7" stroke-linecap="round" stroke-linejoin="round"><path d="M12 3.5c4.4 0 8 1.2 8 2.7S16.4 9 12 9 4 7.7 4 6.2 7.6 3.5 12 3.5zM4 6.2v11.6c0 1.5 3.6 2.7 8 2.7s8-1.2 8-2.7V6.2M4 12c0 1.5 3.6 2.7 8 2.7s8-1.2 8-2.7"/></g>
<text x="1150" y="1122" class="t-tit">Postgres 16 + pgvector</text>
<text x="1150" y="1144" class="t-sub">Banco sdr: leads, imóveis, documentos,</text>
<text x="1150" y="1160" class="t-sub">checkpoint do grafo, saúde · busca vetorial</text>
<rect x="440" y="1244" width="310" height="92" rx="11" class="cartao"/>
<rect x="456" y="1261" width="34" height="34" rx="9" fill="#E8EDF2"/>
<g transform="translate(462.0,1267.0) scale(0.9167)" fill="none" stroke="#64798C" stroke-width="1.7" stroke-linecap="round" stroke-linejoin="round"><path d="M3.5 4.5h17v15h-17zM3.5 15l4.5-4 4 3.5 3.5-3 5 4.5M8.2 9.4h.01"/></g>
<text x="500" y="1270" class="t-tit">Fotos</text>
<text x="500" y="1292" class="t-sub">data/fotos</text>
<text x="500" y="1308" class="t-sub">servidas em /fotos</text>
<path d="M370.0 1148.0 L440.0 1148.0" class="aresta s-cinza" marker-end="url(#p-cinza)"/>
<text x="405" y="1132" class="t-seta x-cinza" text-anchor="middle">HTTP</text>
<path d="M750.0 1148.0 L1090.0 1148.0" class="aresta s-cinza" marker-end="url(#p-cinza)"/>
<text x="920" y="1132" class="t-seta x-cinza" text-anchor="middle">Leitura / escrita</text>
<path d="M595.0 1244.0 L595.0 1200.0" class="aresta s-cinza" marker-end="url(#p-cinza)"/>
<text x="609" y="1224" class="t-seta x-cinza" text-anchor="start">/fotos</text>
<path d="M1315.0 856.0 L1315.0 1096.0" class="aresta s-cinza" marker-end="url(#p-cinza)"/>
<text x="1329" y="950" class="t-seta x-cinza" text-anchor="start">Leitura /</text>
<text x="1329" y="965" class="t-seta x-cinza" text-anchor="start">escrita</text>
<path d="M205.0 1096.0 L205.0 792.0 Q205.0 780.0 217.0 780.0 L668.0 780.0 Q680.0 780.0 680.0 768.0 L680.0 700.0" class="aresta s-azul" marker-end="url(#p-azul)"/>
<text x="219" y="880" class="t-seta x-azul" text-anchor="start">Tempo real</text>
<text x="219" y="895" class="t-seta x-azul" text-anchor="start">WebSocket do painel</text>
<line x1="40" y1="1374" x2="1960" y2="1374" class="linha"/>
<path d="M42.0 1400h34" class="aresta s-azul" marker-end="url(#p-azul)"/>
<text x="88.0" y="1400" class="t-leg">Entrada e tempo real</text>
<path d="M512.0 1400h34" class="aresta s-verde" marker-end="url(#p-verde)"/>
<text x="558.0" y="1400" class="t-leg">Retorno, agenda e CRM</text>
<path d="M982.0 1400h34" class="aresta s-roxo" marker-end="url(#p-roxo)"/>
<text x="1028.0" y="1400" class="t-leg">Processamento de IA</text>
<path d="M1452.0 1400h34" class="aresta s-cinza" marker-end="url(#p-cinza)"/>
<text x="1498.0" y="1400" class="t-leg">Acesso a dados</text>
<text x="40" y="1450" class="t-rod">VISÃO MACRO</text>
</svg>